<svg width="40" height="40" viewBox="0 0 40 40" fill="none" xmlns="http://www.w3.org/2000/svg">
<path d="M36.087 7.79094H34.5325C34.9673 7.03344 35.2173 6.15696 35.2173 5.22258C35.2173 3.14508 34.0375 1.33164 32.1384 0.489691C30.2391 -0.352341 28.103 -0.00859076 26.5638 1.38649L23.2823 4.36032C22.584 3.2861 21.374 2.57352 19.9999 2.57352C18.6237 2.57352 17.4121 3.28821 16.7143 4.36532L13.4273 1.38641C11.888 -0.00851253 9.7518 -0.352184 7.85281 0.489847C5.95359 1.33164 4.77383 3.14524 4.77383 5.22266C4.77383 6.15703 5.02391 7.03344 5.45867 7.79102H3.91305C1.75539 7.79094 0 9.54633 0 11.704V16.9214C0 17.6417 0.583984 18.2258 1.30437 18.2258H2.60875V36.0519C2.60875 38.2095 4.36414 39.9649 6.5218 39.9649C7.79156 39.9649 32.4986 39.9649 33.4783 39.9649C35.6359 39.9649 37.3913 38.2095 37.3913 36.0519V18.2258H38.6957C39.416 18.2258 40.0001 17.6418 40.0001 16.9214V11.704C40 9.54633 38.2446 7.79094 36.087 7.79094ZM16.087 37.3562H6.52172C5.8025 37.3562 5.21734 36.771 5.21734 36.0518V18.2258H16.0869V37.3562H16.087ZM16.087 15.617C15.5299 15.617 3.16977 15.617 2.60867 15.617V11.704C2.60867 10.9848 3.19383 10.3996 3.91305 10.3996C4.37719 10.3996 15.527 10.3996 16.087 10.3996V15.617ZM9.95086 7.79086V7.79094C8.53469 7.79094 7.3825 6.63875 7.3825 5.22258C7.3825 4.17633 7.95352 3.2986 8.91 2.87461C9.25937 2.71977 9.61898 2.64368 9.97258 2.64368C10.5871 2.64368 11.1834 2.87368 11.6755 3.31953L16.6095 7.79094H9.95086V7.79086ZM20 5.18227C20.6155 5.18227 21.1316 5.61141 21.268 6.18594L19.9956 7.33899L18.7305 6.19235C18.8643 5.61461 19.3821 5.18227 20 5.18227ZM21.3044 37.3562H18.6957V18.2258H21.3044V37.3562ZM21.3044 15.617H18.6957V10.3996C19.6281 10.3996 20.3628 10.3996 21.3044 10.3996V15.617ZM28.3156 3.31961C29.0909 2.61711 30.1247 2.45086 31.0812 2.87477C32.0376 3.29868 32.6087 4.17649 32.6087 5.22266C32.6087 6.63883 31.4565 7.79102 30.0403 7.79102H23.3816L28.3156 3.31961ZM34.7826 36.0519C34.7826 36.7711 34.1974 37.3563 33.4782 37.3563H23.913V18.2258H34.7826V36.0519ZM37.3913 15.617C36.8301 15.617 24.4698 15.617 23.913 15.617V10.3996C24.462 10.3996 35.6108 10.3996 36.087 10.3996C36.8062 10.3996 37.3913 10.9848 37.3913 11.704V15.617Z" fill="#171631"/>
<path d="M36.087 7.79094H34.5325C34.9673 7.03344 35.2173 6.15696 35.2173 5.22258C35.2173 3.14508 34.0375 1.33164 32.1384 0.489691C30.2391 -0.352341 28.103 -0.00859076 26.5638 1.38649L23.2823 4.36032C22.584 3.2861 21.374 2.57352 19.9999 2.57352C18.6237 2.57352 17.4121 3.28821 16.7143 4.36532L13.4273 1.38641C11.888 -0.00851253 9.7518 -0.352184 7.85281 0.489847C5.95359 1.33164 4.77383 3.14524 4.77383 5.22266C4.77383 6.15703 5.02391 7.03344 5.45867 7.79102H3.91305C1.75539 7.79094 0 9.54633 0 11.704V16.9214C0 17.6417 0.583984 18.2258 1.30437 18.2258H2.60875V36.0519C2.60875 38.2095 4.36414 39.9649 6.5218 39.9649C7.79156 39.9649 32.4986 39.9649 33.4783 39.9649C35.6359 39.9649 37.3913 38.2095 37.3913 36.0519V18.2258H38.6957C39.416 18.2258 40.0001 17.6418 40.0001 16.9214V11.704C40 9.54633 38.2446 7.79094 36.087 7.79094ZM16.087 37.3562H6.52172C5.8025 37.3562 5.21734 36.771 5.21734 36.0518V18.2258H16.0869V37.3562H16.087ZM16.087 15.617C15.5299 15.617 3.16977 15.617 2.60867 15.617V11.704C2.60867 10.9848 3.19383 10.3996 3.91305 10.3996C4.37719 10.3996 15.527 10.3996 16.087 10.3996V15.617ZM9.95086 7.79086V7.79094C8.53469 7.79094 7.3825 6.63875 7.3825 5.22258C7.3825 4.17633 7.95352 3.2986 8.91 2.87461C9.25937 2.71977 9.61898 2.64368 9.97258 2.64368C10.5871 2.64368 11.1834 2.87368 11.6755 3.31953L16.6095 7.79094H9.95086V7.79086ZM20 5.18227C20.6155 5.18227 21.1316 5.61141 21.268 6.18594L19.9956 7.33899L18.7305 6.19235C18.8643 5.61461 19.3821 5.18227 20 5.18227ZM21.3044 37.3562H18.6957V18.2258H21.3044V37.3562ZM21.3044 15.617H18.6957V10.3996C19.6281 10.3996 20.3628 10.3996 21.3044 10.3996V15.617ZM28.3156 3.31961C29.0909 2.61711 30.1247 2.45086 31.0812 2.87477C32.0376 3.29868 32.6087 4.17649 32.6087 5.22266C32.6087 6.63883 31.4565 7.79102 30.0403 7.79102H23.3816L28.3156 3.31961ZM34.7826 36.0519C34.7826 36.7711 34.1974 37.3563 33.4782 37.3563H23.913V18.2258H34.7826V36.0519ZM37.3913 15.617C36.8301 15.617 24.4698 15.617 23.913 15.617V10.3996C24.462 10.3996 35.6108 10.3996 36.087 10.3996C36.8062 10.3996 37.3913 10.9848 37.3913 11.704V15.617Z" fill="url(#paint0_linear)"/>
<defs>
<linearGradient id="paint0_linear" x1="0" y1="0.0350342" x2="42.7495" y2="3.23505" gradientUnits="userSpaceOnUse">
<stop stop-color="#2CBCEA"/>
<stop offset="1" stop-color="#302CEA"/>
</linearGradient>
</defs>
</svg>
