<svg width="40" height="40" viewBox="0 0 40 40" fill="none" xmlns="http://www.w3.org/2000/svg">
<path d="M31.2509 26.2499H8.75096C3.9262 26.2499 0.000976562 22.3247 0.000976562 17.5C0.000976562 12.6752 3.9262 8.74998 8.75096 8.74998C9.19416 8.74998 9.63361 8.78287 10.0669 8.84826C10.6397 3.8746 14.8763 0 20.0009 0C25.1256 0 29.3622 3.8746 29.935 8.84826C30.3683 8.78287 30.8077 8.74998 31.2509 8.74998C36.0757 8.74998 40.0009 12.6752 40.0009 17.5C40.0009 22.3247 36.0757 26.2499 31.2509 26.2499ZM8.75096 11.25C5.30472 11.25 2.50097 14.0537 2.50097 17.5C2.50097 20.9462 5.30472 23.75 8.75096 23.75H31.2509C34.6972 23.75 37.5009 20.9462 37.5009 17.5C37.5009 14.0537 34.6972 11.25 31.2509 11.25C30.5319 11.25 29.8278 11.3705 29.1584 11.6083C28.7644 11.7483 28.3264 11.682 27.9914 11.4315C27.6565 11.181 27.469 10.7797 27.4919 10.3621C27.4979 10.2509 27.5008 10.1325 27.5008 9.99998C27.5008 5.86444 24.1364 2.49999 20.0009 2.49999C15.8653 2.49999 12.5009 5.86444 12.5009 9.99998C12.5009 10.1325 12.5038 10.2509 12.5099 10.3621C12.5327 10.7797 12.3453 11.181 12.0103 11.4315C11.6753 11.682 11.2372 11.7483 10.8433 11.6083C10.1741 11.3705 9.47002 11.25 8.75096 11.25Z" fill="url(#paint0_linear)"/>
<path d="M16.874 33.1251C16.6357 33.1251 16.3948 33.0571 16.1818 32.9151C15.6073 32.5321 15.4521 31.756 15.8351 31.1816L17.0851 29.3066C17.4681 28.7322 18.2442 28.577 18.8185 28.9599C19.393 29.3429 19.5482 30.119 19.1652 30.6934L17.9152 32.5684C17.6743 32.9297 17.2779 33.1251 16.874 33.1251Z" fill="url(#paint1_linear)"/>
<path d="M6.24899 33.1251C6.01071 33.1251 5.76985 33.0571 5.5568 32.9151C4.98235 32.5321 4.82712 31.756 5.21008 31.1816L6.46008 29.3066C6.84297 28.7322 7.61922 28.577 8.19352 28.9599C8.76797 29.3429 8.92321 30.119 8.54024 30.6934L7.29024 32.5684C7.0493 32.9297 6.6529 33.1251 6.24899 33.1251Z" fill="url(#paint2_linear)"/>
<path d="M28.749 33.1251C28.5107 33.1251 28.2698 33.0571 28.0568 32.9151C27.4824 32.5321 27.3271 31.756 27.7101 31.1816L28.9601 29.3066C29.3431 28.7322 30.1191 28.577 30.6935 28.9599C31.268 29.3429 31.4232 30.119 31.0402 30.6934L29.7902 32.5684C29.5493 32.9297 29.1529 33.1251 28.749 33.1251Z" fill="url(#paint3_linear)"/>
<path d="M16.874 40C16.6357 40 16.3948 39.9321 16.1818 39.79C15.6073 39.4071 15.4521 38.631 15.8351 38.0566L17.0851 36.1816C17.4681 35.6072 18.2442 35.452 18.8185 35.8349C19.393 36.2179 19.5482 36.994 19.1652 37.5683L17.9152 39.4433C17.6743 39.8046 17.2779 40 16.874 40Z" fill="url(#paint4_linear)"/>
<path d="M22.499 35.6251C22.2607 35.6251 22.0198 35.5571 21.8068 35.4151C21.2324 35.0321 21.0771 34.256 21.4601 33.6816L22.7101 31.8066C23.093 31.2322 23.8692 31.0771 24.4435 31.4599C25.018 31.8429 25.1732 32.619 24.7902 33.1934L23.5402 35.0684C23.2993 35.4297 22.9029 35.6251 22.499 35.6251Z" fill="url(#paint5_linear)"/>
<path d="M28.124 40C27.8857 40 27.6448 39.9321 27.4318 39.79C26.8574 39.4071 26.7021 38.631 27.0851 38.0566L28.3351 36.1816C28.718 35.6072 29.4941 35.452 30.0685 35.8349C30.643 36.2179 30.7982 36.994 30.4152 37.5683L29.1652 39.4433C28.9243 39.8046 28.5279 40 28.124 40Z" fill="url(#paint6_linear)"/>
<path d="M11.249 35.6251C11.0107 35.6251 10.7698 35.5571 10.5568 35.4151C9.98235 35.0321 9.82711 34.256 10.2101 33.6816L11.4601 31.8066C11.843 31.2322 12.6191 31.0771 13.1935 31.4599C13.768 31.8429 13.9232 32.619 13.5402 33.1934L12.2902 35.0684C12.0493 35.4297 11.6529 35.6251 11.249 35.6251Z" fill="url(#paint7_linear)"/>
<path d="M5.62399 40C5.38571 40 5.14485 39.9321 4.9318 39.79C4.35735 39.4071 4.20211 38.631 4.58508 38.0566L5.83508 36.1816C6.21797 35.6072 6.99422 35.452 7.56852 35.8349C8.14297 36.2179 8.29821 36.994 7.91524 37.5683L6.66524 39.4433C6.4243 39.8046 6.0279 40 5.62399 40Z" fill="url(#paint8_linear)"/>
<defs>
<linearGradient id="paint0_linear" x1="0.000976563" y1="0" x2="42.4396" y2="4.83226" gradientUnits="userSpaceOnUse">
<stop stop-color="#0B4EF9"/>
<stop offset="1" stop-color="#AB0BF7"/>
</linearGradient>
<linearGradient id="paint1_linear" x1="15.625" y1="28.7499" x2="19.6391" y2="29.007" gradientUnits="userSpaceOnUse">
<stop stop-color="#0B4EF9"/>
<stop offset="1" stop-color="#AB0BF7"/>
</linearGradient>
<linearGradient id="paint2_linear" x1="5" y1="28.7499" x2="9.01409" y2="29.007" gradientUnits="userSpaceOnUse">
<stop stop-color="#0B4EF9"/>
<stop offset="1" stop-color="#AB0BF7"/>
</linearGradient>
<linearGradient id="paint3_linear" x1="27.5" y1="28.7499" x2="31.5141" y2="29.007" gradientUnits="userSpaceOnUse">
<stop stop-color="#0B4EF9"/>
<stop offset="1" stop-color="#AB0BF7"/>
</linearGradient>
<linearGradient id="paint4_linear" x1="15.625" y1="35.6248" x2="19.6391" y2="35.882" gradientUnits="userSpaceOnUse">
<stop stop-color="#0B4EF9"/>
<stop offset="1" stop-color="#AB0BF7"/>
</linearGradient>
<linearGradient id="paint5_linear" x1="21.25" y1="31.2499" x2="25.2641" y2="31.507" gradientUnits="userSpaceOnUse">
<stop stop-color="#0B4EF9"/>
<stop offset="1" stop-color="#AB0BF7"/>
</linearGradient>
<linearGradient id="paint6_linear" x1="26.875" y1="35.6248" x2="30.8891" y2="35.882" gradientUnits="userSpaceOnUse">
<stop stop-color="#0B4EF9"/>
<stop offset="1" stop-color="#AB0BF7"/>
</linearGradient>
<linearGradient id="paint7_linear" x1="10" y1="31.2499" x2="14.0141" y2="31.507" gradientUnits="userSpaceOnUse">
<stop stop-color="#0B4EF9"/>
<stop offset="1" stop-color="#AB0BF7"/>
</linearGradient>
<linearGradient id="paint8_linear" x1="4.375" y1="35.6248" x2="8.38909" y2="35.882" gradientUnits="userSpaceOnUse">
<stop stop-color="#0B4EF9"/>
<stop offset="1" stop-color="#AB0BF7"/>
</linearGradient>
</defs>
</svg>
