<svg width="40" height="40" viewBox="0 0 40 40" fill="none" xmlns="http://www.w3.org/2000/svg">
<path d="M19.9987 4.68673C19.3515 4.68673 18.8269 5.21141 18.8269 5.8586C18.8269 6.50579 19.3515 7.03048 19.9987 7.03048C23.8764 7.03048 27.0311 10.1847 27.0311 14.0617C27.0311 14.7089 27.5558 15.2336 28.203 15.2336C28.8502 15.2336 29.3749 14.7089 29.3749 14.0617C29.3749 8.89235 25.1688 4.68673 19.9987 4.68673Z" fill="url(#paint0_linear)"/>
<path d="M16.9794 0.314821C11.6849 1.42115 7.39189 5.67302 6.26228 11.0004C5.30845 15.499 6.48384 20.0154 9.48704 23.3916C10.9551 25.0419 11.797 27.2202 11.797 29.3742V31.7179C11.797 33.2773 12.8178 34.6021 14.2261 35.0609C14.6892 37.7972 17.0642 39.9991 20.0001 39.9991C22.9352 39.9991 25.3108 37.7979 25.7741 35.0609C27.1824 34.6021 28.2032 33.2773 28.2032 31.7179V29.3741C28.2032 27.2159 29.0479 25.0637 30.5815 23.314C32.8263 20.7531 34.0626 17.4672 34.0626 14.0617C34.0626 5.18943 25.9416 -1.55752 16.9794 0.314821ZM20.0001 37.6554C18.4937 37.6554 17.1729 36.6189 16.6852 35.2258H23.3149C22.8273 36.6189 21.5065 37.6554 20.0001 37.6554ZM25.8595 31.7179C25.8595 32.3641 25.3338 32.8898 24.6876 32.8898H15.3126C14.6664 32.8898 14.1407 32.3641 14.1407 31.7179V30.5461H25.8595V31.7179ZM28.819 21.7693C27.1846 23.6339 26.1791 25.8823 25.9239 28.2023H14.0765C13.8217 25.8811 12.8187 23.6105 11.2384 21.8339C8.7354 19.0201 7.75736 15.2487 8.55509 11.4866C9.48626 7.0949 13.0644 3.52732 17.4588 2.60912C24.9607 1.04138 31.7188 6.67513 31.7188 14.0617C31.7188 16.8986 30.689 19.6358 28.819 21.7693Z" fill="url(#paint1_linear)"/>
<path d="M3.51562 14.0617H1.17188C0.524687 14.0617 0 14.5864 0 15.2336C0 15.8808 0.524687 16.4055 1.17188 16.4055H3.51562C4.16281 16.4055 4.6875 15.8808 4.6875 15.2336C4.6875 14.5864 4.16281 14.0617 3.51562 14.0617Z" fill="url(#paint2_linear)"/>
<path d="M4.00097 8.20235L2.3437 6.54509C1.88612 6.08743 1.14409 6.08743 0.686434 6.54509C0.228778 7.00274 0.228778 7.7447 0.686434 8.20235L2.3437 9.85962C2.80128 10.3173 3.54331 10.3174 4.00097 9.85962C4.45862 9.40196 4.45862 8.66001 4.00097 8.20235Z" fill="url(#paint3_linear)"/>
<path d="M4.00097 20.6076C3.54331 20.1499 2.80128 20.1499 2.3437 20.6076L0.686434 22.2648C0.228778 22.7225 0.228778 23.4644 0.686434 23.9221C1.14401 24.3798 1.88604 24.3798 2.3437 23.9221L4.00097 22.2648C4.45862 21.8072 4.45862 21.0652 4.00097 20.6076Z" fill="url(#paint4_linear)"/>
<path d="M38.8281 14.0617H36.4844C35.8372 14.0617 35.3125 14.5864 35.3125 15.2336C35.3125 15.8808 35.8372 16.4055 36.4844 16.4055H38.8281C39.4753 16.4055 40 15.8808 40 15.2336C40 14.5864 39.4753 14.0617 38.8281 14.0617Z" fill="url(#paint5_linear)"/>
<path d="M39.3135 6.54509C38.8559 6.08743 38.1139 6.08743 37.6562 6.54509L35.9989 8.20235C35.5413 8.66001 35.5413 9.40196 35.9989 9.85962C36.4565 10.3172 37.1985 10.3173 37.6562 9.85962L39.3135 8.20235C39.7711 7.7447 39.7711 7.00274 39.3135 6.54509Z" fill="url(#paint6_linear)"/>
<path d="M39.3135 22.2648L37.6562 20.6076C37.1986 20.1499 36.4566 20.1499 35.9989 20.6076C35.5413 21.0652 35.5413 21.8072 35.9989 22.2648L37.6562 23.9221C38.1138 24.3797 38.8558 24.3798 39.3135 23.9221C39.7711 23.4645 39.7711 22.7225 39.3135 22.2648Z" fill="url(#paint7_linear)"/>
<defs>
<linearGradient id="paint0_linear" x1="0" y1="0.000900269" x2="42.7502" y2="3.1955" gradientUnits="userSpaceOnUse">
<stop stop-color="#F90B0B"/>
<stop offset="1" stop-color="#F70B8A"/>
</linearGradient>
<linearGradient id="paint1_linear" x1="0" y1="0.000900269" x2="42.7502" y2="3.1955" gradientUnits="userSpaceOnUse">
<stop stop-color="#F90B0B"/>
<stop offset="1" stop-color="#F70B8A"/>
</linearGradient>
<linearGradient id="paint2_linear" x1="0" y1="0.000900269" x2="42.7502" y2="3.1955" gradientUnits="userSpaceOnUse">
<stop stop-color="#F90B0B"/>
<stop offset="1" stop-color="#F70B8A"/>
</linearGradient>
<linearGradient id="paint3_linear" x1="0" y1="0.000900269" x2="42.7502" y2="3.1955" gradientUnits="userSpaceOnUse">
<stop stop-color="#F90B0B"/>
<stop offset="1" stop-color="#F70B8A"/>
</linearGradient>
<linearGradient id="paint4_linear" x1="0" y1="0.000900269" x2="42.7502" y2="3.1955" gradientUnits="userSpaceOnUse">
<stop stop-color="#F90B0B"/>
<stop offset="1" stop-color="#F70B8A"/>
</linearGradient>
<linearGradient id="paint5_linear" x1="0" y1="0.000900269" x2="42.7502" y2="3.1955" gradientUnits="userSpaceOnUse">
<stop stop-color="#F90B0B"/>
<stop offset="1" stop-color="#F70B8A"/>
</linearGradient>
<linearGradient id="paint6_linear" x1="0" y1="0.000900269" x2="42.7502" y2="3.1955" gradientUnits="userSpaceOnUse">
<stop stop-color="#F90B0B"/>
<stop offset="1" stop-color="#F70B8A"/>
</linearGradient>
<linearGradient id="paint7_linear" x1="0" y1="0.000900269" x2="42.7502" y2="3.1955" gradientUnits="userSpaceOnUse">
<stop stop-color="#F90B0B"/>
<stop offset="1" stop-color="#F70B8A"/>
</linearGradient>
</defs>
</svg>
