<svg width="40" height="40" viewBox="0 0 40 40" fill="none" xmlns="http://www.w3.org/2000/svg">
<path d="M11.4062 34.5312C11.4062 34.0998 11.0565 33.75 10.625 33.75H5.46875C5.03727 33.75 4.6875 34.0998 4.6875 34.5312C4.6875 34.9627 5.03727 35.3125 5.46875 35.3125H10.625C11.0565 35.3125 11.4062 34.9627 11.4062 34.5312Z" fill="url(#paint0_linear)"/>
<path d="M39.2188 7.96875H16.0938V5.46875C16.0938 2.4532 13.6405 0 10.625 0H5.46875C2.45328 0 0 2.4532 0 5.46875V13.8279C0 14.2593 0.349766 14.6091 0.78125 14.6091C1.21273 14.6091 1.5625 14.2593 1.5625 13.8279V5.46875C1.5625 3.31484 3.31484 1.5625 5.46875 1.5625H10.625C12.7789 1.5625 14.5312 3.31484 14.5312 5.46875V30.7091C13.5378 29.6941 12.1541 29.0625 10.625 29.0625H5.46875C4.00859 29.0625 2.63523 29.6312 1.60125 30.6643C1.58797 30.6776 1.57562 30.6916 1.5625 30.705V20.8593C1.5625 20.4279 1.21273 20.078 0.78125 20.078C0.349766 20.078 0 20.4279 0 20.8593V34.5312C0 37.5468 2.45328 40 5.46875 40H39.2188C39.6502 40 40 39.6502 40 39.2188V8.75C40 8.31859 39.6502 7.96875 39.2188 7.96875ZM27.1763 9.53125L38.4375 20.7924V28.5255L19.4432 9.53125H27.1763ZM38.4375 18.5826L29.3862 9.53125H38.4375V18.5826ZM17.2334 9.53125L38.4375 30.7353V38.4375H38.4057L16.0938 16.1255V9.53125H17.2334ZM28.462 38.4375L16.0938 26.0686V18.3353L36.1959 38.4375H28.462ZM1.5625 34.5312C1.5625 32.3673 3.31453 30.625 5.46875 30.625H10.625C12.7789 30.625 14.5312 32.3773 14.5312 34.5312C14.5312 36.6952 12.7792 38.4375 10.625 38.4375H5.46875C3.31484 38.4375 1.5625 36.6852 1.5625 34.5312ZM16.0938 34.5312V28.2784L26.2522 38.4375H14.4513C15.5198 37.3917 16.0938 35.9973 16.0938 34.5312Z" fill="url(#paint1_linear)"/>
<path d="M0.78125 18.1249C1.21272 18.1249 1.5625 17.7751 1.5625 17.3437C1.5625 16.9122 1.21272 16.5624 0.78125 16.5624C0.349778 16.5624 0 16.9122 0 17.3437C0 17.7751 0.349778 18.1249 0.78125 18.1249Z" fill="url(#paint2_linear)"/>
<defs>
<linearGradient id="paint0_linear" x1="4.6875" y1="33.75" x2="11.2326" y2="35.853" gradientUnits="userSpaceOnUse">
<stop stop-color="#F90B0B"/>
<stop offset="1" stop-color="#F70B8A"/>
</linearGradient>
<linearGradient id="paint1_linear" x1="0" y1="0" x2="42.7502" y2="3.19446" gradientUnits="userSpaceOnUse">
<stop stop-color="#F90B0B"/>
<stop offset="1" stop-color="#F70B8A"/>
</linearGradient>
<linearGradient id="paint2_linear" x1="0" y1="16.5624" x2="1.66993" y2="16.6872" gradientUnits="userSpaceOnUse">
<stop stop-color="#F90B0B"/>
<stop offset="1" stop-color="#F70B8A"/>
</linearGradient>
</defs>
</svg>
