<svg width="40" height="34" viewBox="0 0 40 34" fill="none" xmlns="http://www.w3.org/2000/svg">
<path d="M39.9958 5.46032C39.6463 3.65125 37.9911 1.98743 35.3495 0.648442C35.1073 0.525708 34.8187 0.537426 34.5873 0.679536C34.356 0.821645 34.215 1.0736 34.215 1.34516V7.44922C34.215 7.88063 34.5648 8.23039 34.9962 8.23039C35.4275 8.23039 35.7773 7.88063 35.7773 7.44922V2.68508C37.238 3.61547 38.1441 4.65696 38.373 5.68836L38.3731 6.76055C38.0316 8.30633 36.223 9.83696 33.2918 11.0285C29.7536 12.4668 25.0323 13.2589 19.9978 13.2589C14.9634 13.2589 10.242 12.4668 6.70367 11.0284C3.43617 9.70024 1.56227 7.95063 1.56227 6.22844V5.68836C1.79141 4.65696 2.69734 3.61547 4.15805 2.68516V7.4493C4.15805 7.88071 4.50789 8.23047 4.93922 8.23047C5.37055 8.23047 5.72039 7.88071 5.72039 7.4493V1.34508C5.72039 1.07352 5.57938 0.821567 5.34805 0.679458C5.11672 0.53727 4.82828 0.52563 4.58602 0.648364C1.94461 1.98743 0.363594 3.65125 0.0142187 5.46032C0.00476562 5.50915 0 24.8432 0 24.8432C0 27.2688 2.17188 29.4875 6.11547 31.0906C9.83625 32.6031 14.7664 33.4361 19.9979 33.4361C25.2294 33.4361 30.1595 32.6031 33.8803 31.0906C37.8239 29.4875 39.9958 27.2688 39.9958 24.8432C39.9958 24.8432 40.0052 5.50915 39.9958 5.46032ZM33.292 29.6432C29.7537 31.0816 25.0323 31.8737 19.9979 31.8737C14.9634 31.8737 10.2421 31.0816 6.70375 29.6432C5.02734 28.9618 3.71898 28.1693 2.84109 27.3266L10.627 19.5408L18.5777 27.4916C18.8827 27.7967 19.3773 27.7967 19.6825 27.4916C19.9876 27.1865 19.9876 26.6919 19.6825 26.3868L17.5877 24.292L24.9777 16.902L36.189 28.1133C35.4073 28.662 34.4354 29.1784 33.292 29.6432ZM38.4334 24.8432C38.4334 25.6021 38.0691 26.3663 37.3825 27.0973L25.53 15.2448C25.2248 14.9398 24.7304 14.9398 24.4252 15.2448L16.4828 23.1872L11.1793 17.8837C11.0327 17.7372 10.8341 17.6548 10.627 17.6548C10.4198 17.6548 10.2212 17.7372 10.0746 17.8837L1.87922 26.0789C1.67094 25.6696 1.56227 25.2556 1.56227 24.8432V9.64352C2.59844 10.7086 4.13297 11.6698 6.11539 12.4757C9.83617 13.9882 14.7663 14.8212 19.9978 14.8212C25.2293 14.8212 30.1595 13.9882 33.8802 12.4757C35.8627 11.6698 37.3972 10.7085 38.4334 9.64352V24.8432H38.4334Z" fill="url(#paint0_linear)"/>
<defs>
<linearGradient id="paint0_linear" x1="0" y1="0.563919" x2="42.6364" y2="4.44069" gradientUnits="userSpaceOnUse">
<stop stop-color="#0B4EF9"/>
<stop offset="1" stop-color="#AB0BF7"/>
</linearGradient>
</defs>
</svg>
