<svg width="40" height="34" viewBox="0 0 40 34" fill="none" xmlns="http://www.w3.org/2000/svg">
<path d="M38.0911 15.3602L40 9.11424L37.2973 5.55713L39.897 1.18698L30.6509 0.116821L25.678 4.13737C24.8101 1.79307 22.5592 0.118228 19.9255 0.118228C16.778 0.118228 14.178 2.51041 13.8313 5.57862L9.74617 5.08479L6.29383 10.4953L1.31883 13.4126L0 24.5339L4.24437 23.9324L2.79219 28.7615L11.5742 33.8832L12.1212 25.7457L20.1141 26.6945L23.9605 23.5292L28.7108 24.3301L32.561 29.9668L36.607 22.5331L33.3301 16.1156L34.7813 13.2357L38.0911 15.3602ZM19.9255 2.4619C22.0209 2.4619 23.7255 4.17315 23.7255 6.27666C23.7255 8.38198 22.9977 10.3374 21.5622 12.0887C20.9636 12.8189 20.3574 13.3638 19.9255 13.7111C19.4933 13.3635 18.8872 12.8187 18.2888 12.0887C16.8534 10.3374 16.1255 8.38206 16.1255 6.27666C16.1255 4.17315 17.8302 2.4619 19.9255 2.4619ZM30.7099 16.1226L33.9655 22.4981L32.3356 25.4926L30.0754 22.1836L23.3009 21.0414L19.402 24.2498L9.95703 23.1285L9.49773 29.9616L5.56055 27.6654L7.53523 21.0989L2.67688 21.7874L3.49984 14.8478L7.95672 12.2343L10.9219 7.58745L13.9154 7.9494C14.7147 13.2575 19.1092 16.0308 19.3141 16.1573L19.9255 16.5346L20.5368 16.1573C20.7555 16.0224 25.7438 12.8746 26.0457 6.84932L31.3541 2.55745L36.0398 3.09979L34.4827 5.71737L37.416 9.57815L36.7602 11.724L33.8634 9.86463L30.7099 16.1226Z" fill="#171631"/>
<path d="M38.0911 15.3602L40 9.11424L37.2973 5.55713L39.897 1.18698L30.6509 0.116821L25.678 4.13737C24.8101 1.79307 22.5592 0.118228 19.9255 0.118228C16.778 0.118228 14.178 2.51041 13.8313 5.57862L9.74617 5.08479L6.29383 10.4953L1.31883 13.4126L0 24.5339L4.24437 23.9324L2.79219 28.7615L11.5742 33.8832L12.1212 25.7457L20.1141 26.6945L23.9605 23.5292L28.7108 24.3301L32.561 29.9668L36.607 22.5331L33.3301 16.1156L34.7813 13.2357L38.0911 15.3602ZM19.9255 2.4619C22.0209 2.4619 23.7255 4.17315 23.7255 6.27666C23.7255 8.38198 22.9977 10.3374 21.5622 12.0887C20.9636 12.8189 20.3574 13.3638 19.9255 13.7111C19.4933 13.3635 18.8872 12.8187 18.2888 12.0887C16.8534 10.3374 16.1255 8.38206 16.1255 6.27666C16.1255 4.17315 17.8302 2.4619 19.9255 2.4619ZM30.7099 16.1226L33.9655 22.4981L32.3356 25.4926L30.0754 22.1836L23.3009 21.0414L19.402 24.2498L9.95703 23.1285L9.49773 29.9616L5.56055 27.6654L7.53523 21.0989L2.67688 21.7874L3.49984 14.8478L7.95672 12.2343L10.9219 7.58745L13.9154 7.9494C14.7147 13.2575 19.1092 16.0308 19.3141 16.1573L19.9255 16.5346L20.5368 16.1573C20.7555 16.0224 25.7438 12.8746 26.0457 6.84932L31.3541 2.55745L36.0398 3.09979L34.4827 5.71737L37.416 9.57815L36.7602 11.724L33.8634 9.86463L30.7099 16.1226Z" fill="url(#paint0_linear)"/>
<path d="M18.7537 5.32544H21.0974V7.66919H18.7537V5.32544Z" fill="#171631"/>
<path d="M18.7537 5.32544H21.0974V7.66919H18.7537V5.32544Z" fill="url(#paint1_linear)"/>
<defs>
<linearGradient id="paint0_linear" x1="0" y1="0.116821" x2="42.6547" y2="3.89256" gradientUnits="userSpaceOnUse">
<stop stop-color="#2CBCEA"/>
<stop offset="1" stop-color="#302CEA"/>
</linearGradient>
<linearGradient id="paint1_linear" x1="18.7537" y1="5.32544" x2="21.2586" y2="5.51261" gradientUnits="userSpaceOnUse">
<stop stop-color="#2CBCEA"/>
<stop offset="1" stop-color="#302CEA"/>
</linearGradient>
</defs>
</svg>
