<svg width="40" height="40" viewBox="0 0 40 40" fill="none" xmlns="http://www.w3.org/2000/svg">
<path d="M35.813 29.7407C35.1205 29.2256 34.1418 29.3695 33.6267 30.0617C33.3434 30.4425 33.0403 30.816 32.7257 31.1719C32.1542 31.8184 32.2149 32.8059 32.8614 33.3774C33.1587 33.6403 33.5279 33.7693 33.8957 33.7693C34.3279 33.7693 34.7582 33.591 35.0669 33.2417C35.4395 32.8203 35.7985 32.3779 36.134 31.9269C36.6491 31.2346 36.5054 30.2557 35.813 29.7407Z" fill="url(#paint0_linear)"/>
<path d="M38.4262 22.413C37.5835 22.2295 36.7506 22.7642 36.5671 23.6073C36.4661 24.0712 36.3441 24.5359 36.2041 24.9887C35.9494 25.8132 36.4113 26.688 37.2357 26.9428C37.3894 26.9902 37.5447 27.0128 37.6975 27.0128C38.3647 27.0128 38.9825 26.582 39.1898 25.9111C39.3559 25.3737 39.5008 24.8223 39.6206 24.272C39.8041 23.4289 39.2694 22.5966 38.4262 22.413Z" fill="url(#paint1_linear)"/>
<path d="M28.2921 34.7448C27.8773 34.9764 27.4477 35.1928 27.0155 35.388C26.2291 35.7432 25.8795 36.6687 26.2346 37.4552C26.4955 38.033 27.0642 38.3749 27.6595 38.3749C27.8745 38.3749 28.093 38.3303 28.3017 38.2361C28.8145 38.0045 29.3237 37.7479 29.8156 37.4733C30.5691 37.0527 30.8388 36.1008 30.4181 35.3473C29.9975 34.594 29.0456 34.3242 28.2921 34.7448Z" fill="url(#paint2_linear)"/>
<path d="M18.4375 7.5V19.3528L12.7079 25.0823C12.0978 25.6926 12.0978 26.6819 12.7079 27.292C13.0131 27.5972 13.4128 27.7497 13.8128 27.7497C14.2127 27.7497 14.6126 27.5971 14.9178 27.292L21.105 21.1048C21.3979 20.8119 21.5625 20.4144 21.5625 20V7.5C21.5625 6.63703 20.863 5.9375 20 5.9375C19.1371 5.9375 18.4375 6.63703 18.4375 7.5Z" fill="url(#paint3_linear)"/>
<path d="M38.4375 3.35938C37.5745 3.35938 36.875 4.05891 36.875 4.92188V9.26062C33.2381 3.55687 26.8868 0 20 0C14.6578 0 9.63539 2.08039 5.85781 5.85781C2.08039 9.63539 0 14.6578 0 20C0 25.3422 2.08039 30.3646 5.85781 34.1422C9.63539 37.9196 14.6578 40 20 40C20.0132 40 20.0259 39.9984 20.0391 39.998C20.0522 39.9984 20.0649 40 20.0781 40C20.6413 40 21.2099 39.9762 21.7685 39.9295C22.6284 39.8575 23.2672 39.102 23.1952 38.2421C23.1231 37.3822 22.3687 36.7431 21.5077 36.8155C21.0355 36.8549 20.5546 36.875 20.0781 36.875C20.0649 36.875 20.0522 36.8766 20.0391 36.877C20.0259 36.8766 20.0132 36.875 20 36.875C10.6951 36.875 3.125 29.3049 3.125 20C3.125 10.6951 10.6951 3.125 20 3.125C25.9967 3.125 31.5123 6.32133 34.5262 11.4062H30.2299C29.367 11.4062 28.6674 12.1058 28.6674 12.9688C28.6674 13.8317 29.367 14.5312 30.2299 14.5312H35C35.9516 14.5312 36.8418 14.2638 37.5998 13.8005C37.6485 13.7727 37.6954 13.7428 37.7401 13.7105C39.0999 12.8159 40 11.2771 40 9.53125V4.92188C40 4.05891 39.3005 3.35938 38.4375 3.35938Z" fill="url(#paint4_linear)"/>
<defs>
<linearGradient id="paint0_linear" x1="0" y1="0" x2="42.7502" y2="3.19446" gradientUnits="userSpaceOnUse">
<stop stop-color="#0B4EF9"/>
<stop offset="1" stop-color="#AB0BF7"/>
</linearGradient>
<linearGradient id="paint1_linear" x1="0" y1="0" x2="42.7502" y2="3.19446" gradientUnits="userSpaceOnUse">
<stop stop-color="#0B4EF9"/>
<stop offset="1" stop-color="#AB0BF7"/>
</linearGradient>
<linearGradient id="paint2_linear" x1="0" y1="0" x2="42.7502" y2="3.19446" gradientUnits="userSpaceOnUse">
<stop stop-color="#0B4EF9"/>
<stop offset="1" stop-color="#AB0BF7"/>
</linearGradient>
<linearGradient id="paint3_linear" x1="0" y1="0" x2="42.7502" y2="3.19446" gradientUnits="userSpaceOnUse">
<stop stop-color="#0B4EF9"/>
<stop offset="1" stop-color="#AB0BF7"/>
</linearGradient>
<linearGradient id="paint4_linear" x1="0" y1="0" x2="42.7502" y2="3.19446" gradientUnits="userSpaceOnUse">
<stop stop-color="#0B4EF9"/>
<stop offset="1" stop-color="#AB0BF7"/>
</linearGradient>
</defs>
</svg>
