<svg width="32" height="34" viewBox="0 0 32 34" fill="none" xmlns="http://www.w3.org/2000/svg">
<path d="M26.7575 16.0101C24.7878 13.9394 22.1615 12.4747 19.2322 11.8687V10.0505C19.2322 9.64647 19.0807 9.24242 18.7777 8.9899C18.4746 8.73737 18.1211 8.53535 17.717 8.53535H16.909L16.8585 0.757576C16.8585 0.30303 16.5049 0 16.1009 0C15.6463 0 15.3433 0.353535 15.3433 0.757576L15.3938 8.53535H14.5857C14.1817 8.53535 13.7777 8.68687 13.5251 8.9899C13.2726 9.29293 13.0706 9.64647 13.0706 10.0505V11.8182C9.98977 12.4747 7.313 13.9394 5.2423 16.0101C2.46452 18.7879 0.797852 22.5758 0.797852 26.8182C0.797852 27.2727 1.15139 27.5758 1.55543 27.5758H9.63624C9.83826 29.0404 10.4443 30.3535 11.4544 31.3636C12.616 32.5253 14.2322 33.2323 15.9999 33.2323C17.7675 33.2323 19.3837 32.5253 20.5453 31.3636C21.5554 30.3535 22.1615 29.0404 22.3635 27.5758H30.4443C30.8989 27.5758 31.2019 27.2222 31.2019 26.8182C31.2019 22.6263 29.4847 18.7879 26.7575 16.0101ZM14.5352 10.101H17.6665V11.6162C17.616 11.6162 17.616 11.6162 17.5655 11.6162C17.4645 11.6162 17.414 11.6162 17.313 11.6162C16.909 11.5657 16.4544 11.5657 16.0504 11.5657C15.6463 11.5152 15.2423 11.5657 14.8383 11.5657C14.7372 11.5657 14.6362 11.5657 14.5352 11.6162V10.101ZM19.4847 30.2525C18.5756 31.1616 17.3635 31.6667 16.0504 31.6667C14.6867 31.6667 13.4746 31.1111 12.616 30.2525C11.909 29.5455 11.4039 28.6364 11.2524 27.5758H16.0504H20.8989C20.6968 28.5859 20.2423 29.5455 19.4847 30.2525ZM21.7069 26.0101H16.0504H10.3938H2.36351C2.56553 22.5253 4.03017 19.3939 6.35341 17.1212C8.47462 15 11.2524 13.5859 14.3837 13.2323C14.4847 13.2323 14.6362 13.1818 14.7372 13.1818C15.1413 13.1313 15.5958 13.1313 15.9999 13.1313C16.4544 13.1313 16.8585 13.1313 17.313 13.1818C17.414 13.1818 17.5655 13.2323 17.6665 13.2323C20.7979 13.5859 23.5756 15 25.6968 17.1212C28.0201 19.4444 29.4847 22.5253 29.6867 26.0101H21.7069Z" fill="url(#paint0_linear)"/>
<defs>
<linearGradient id="paint0_linear" x1="0.797852" y1="0" x2="33.3218" y2="2.22347" gradientUnits="userSpaceOnUse">
<stop stop-color="#0B4EF9"/>
<stop offset="1" stop-color="#AB0BF7"/>
</linearGradient>
</defs>
</svg>
