<svg width="40" height="40" viewBox="0 0 40 40" fill="none" xmlns="http://www.w3.org/2000/svg">
<path d="M30.7575 16.0101C28.7878 13.9394 26.1615 12.4747 23.2322 11.8687V10.0505C23.2322 9.64647 23.0807 9.24242 22.7777 8.9899C22.4746 8.73737 22.1211 8.53535 21.717 8.53535H20.909L20.8585 0.757576C20.8585 0.30303 20.5049 0 20.1009 0C19.6463 0 19.3433 0.353535 19.3433 0.757576L19.3938 8.53535H18.5857C18.1817 8.53535 17.7777 8.68687 17.5251 8.9899C17.2726 9.29293 17.0706 9.64647 17.0706 10.0505V11.8182C13.9898 12.4747 11.313 13.9394 9.2423 16.0101C6.46452 18.7879 4.79785 22.5758 4.79785 26.8182C4.79785 27.2727 5.15139 27.5758 5.55543 27.5758H13.6362C13.8383 29.0404 14.4443 30.3535 15.4544 31.3636C16.616 32.5253 18.2322 33.2323 19.9999 33.2323C21.7675 33.2323 23.3837 32.5253 24.5453 31.3636C25.5554 30.3535 26.1615 29.0404 26.3635 27.5758H34.4443C34.8989 27.5758 35.2019 27.2222 35.2019 26.8182C35.2019 22.6263 33.4847 18.7879 30.7575 16.0101ZM18.5352 10.101H21.6665V11.6162C21.616 11.6162 21.616 11.6162 21.5655 11.6162C21.4645 11.6162 21.414 11.6162 21.313 11.6162C20.909 11.5657 20.4544 11.5657 20.0504 11.5657C19.6463 11.5152 19.2423 11.5657 18.8383 11.5657C18.7372 11.5657 18.6362 11.5657 18.5352 11.6162V10.101ZM23.4847 30.2525C22.5756 31.1616 21.3635 31.6667 20.0504 31.6667C18.6867 31.6667 17.4746 31.1111 16.616 30.2525C15.909 29.5455 15.4039 28.6364 15.2524 27.5758H20.0504H24.8989C24.6968 28.5859 24.2423 29.5455 23.4847 30.2525ZM25.7069 26.0101H20.0504H14.3938H6.36351C6.56553 22.5253 8.03017 19.3939 10.3534 17.1212C12.4746 15 15.2524 13.5859 18.3837 13.2323C18.4847 13.2323 18.6362 13.1818 18.7372 13.1818C19.1413 13.1313 19.5958 13.1313 19.9999 13.1313C20.4544 13.1313 20.8585 13.1313 21.313 13.1818C21.414 13.1818 21.5655 13.2323 21.6665 13.2323C24.7979 13.5859 27.5756 15 29.6968 17.1212C32.0201 19.4444 33.4847 22.5253 33.6867 26.0101H25.7069Z" fill="url(#paint0_linear)"/>
<path d="M20.0505 34.2929C19.596 34.2929 19.293 34.6465 19.293 35.0505V39.2424C19.293 39.697 19.6465 40 20.0505 40C20.5051 40 20.8081 39.6465 20.8081 39.2424V35.0505C20.8081 34.596 20.5051 34.2929 20.0505 34.2929Z" fill="url(#paint1_linear)"/>
<path d="M26.9699 37.1717L24.8487 33.5354C24.6466 33.1818 24.1416 33.0303 23.788 33.2323C23.4345 33.4344 23.283 33.9394 23.485 34.2929L25.6062 37.9293C25.8083 38.2828 26.3133 38.4343 26.6668 38.2323C27.0204 38.0303 27.1719 37.5253 26.9699 37.1717Z" fill="url(#paint2_linear)"/>
<path d="M31.212 32.3737L27.5757 30.2525C27.2221 30.0505 26.7171 30.1515 26.5151 30.5556C26.3131 30.9091 26.4141 31.4141 26.8181 31.6162L30.4545 33.7374C30.808 33.9394 31.3131 33.8384 31.5151 33.4343C31.7171 33.0808 31.6161 32.5758 31.212 32.3737Z" fill="url(#paint3_linear)"/>
<path d="M13.5856 30.5556C13.3836 30.202 12.8785 30.0505 12.525 30.2525L8.88863 32.3737C8.5351 32.5758 8.38358 33.0808 8.5856 33.4343C8.78762 33.7879 9.29267 33.9394 9.64621 33.7374L13.2826 31.6162C13.6361 31.3636 13.7876 30.9091 13.5856 30.5556Z" fill="url(#paint4_linear)"/>
<path d="M16.3131 33.2323C15.9596 33.0303 15.4545 33.1818 15.2525 33.5354L13.1313 37.1717C12.9293 37.5253 13.0303 38.0303 13.4343 38.2323C13.7878 38.4344 14.2929 38.3334 14.4949 37.9293L16.6161 34.2929C16.8182 33.9394 16.7171 33.4344 16.3131 33.2323Z" fill="url(#paint5_linear)"/>
<defs>
<linearGradient id="paint0_linear" x1="4.79785" y1="0" x2="37.3218" y2="2.22347" gradientUnits="userSpaceOnUse">
<stop stop-color="#0B4EF9"/>
<stop offset="1" stop-color="#AB0BF7"/>
</linearGradient>
<linearGradient id="paint1_linear" x1="19.293" y1="34.2929" x2="20.9207" y2="34.3252" gradientUnits="userSpaceOnUse">
<stop stop-color="#0B4EF9"/>
<stop offset="1" stop-color="#AB0BF7"/>
</linearGradient>
<linearGradient id="paint2_linear" x1="23.3945" y1="33.1418" x2="27.3233" y2="33.3496" gradientUnits="userSpaceOnUse">
<stop stop-color="#0B4EF9"/>
<stop offset="1" stop-color="#AB0BF7"/>
</linearGradient>
<linearGradient id="paint3_linear" x1="26.4141" y1="30.1515" x2="31.9433" y2="30.7345" gradientUnits="userSpaceOnUse">
<stop stop-color="#0B4EF9"/>
<stop offset="1" stop-color="#AB0BF7"/>
</linearGradient>
<linearGradient id="paint4_linear" x1="8.49512" y1="30.162" x2="14.0018" y2="30.7436" gradientUnits="userSpaceOnUse">
<stop stop-color="#0B4EF9"/>
<stop offset="1" stop-color="#AB0BF7"/>
</linearGradient>
<linearGradient id="paint5_linear" x1="13.0303" y1="33.1418" x2="16.9815" y2="33.3515" gradientUnits="userSpaceOnUse">
<stop stop-color="#0B4EF9"/>
<stop offset="1" stop-color="#AB0BF7"/>
</linearGradient>
</defs>
</svg>
