<svg width="40" height="40" viewBox="0 0 40 40" fill="none" xmlns="http://www.w3.org/2000/svg">
<g clip-path="url(#clip0)">
<path d="M3.37468 34.8569C5.38509 36.8672 8.48569 37.099 10.7488 35.6021L14.8034 39.6566C15.2609 40.1142 16.0029 40.1144 16.4606 39.6566L19.7751 36.3421C20.2325 35.8847 20.2326 35.1425 19.7751 34.6849L15.8132 30.723C23.7189 23.2383 31.8596 22.7182 34.3958 21.8292C34.8054 21.7268 35.1282 21.412 35.2408 21.0051C35.3535 20.5983 35.2386 20.1623 34.9401 19.8637L16.7106 1.63423C16.4122 1.33572 15.9763 1.22088 15.5693 1.33353C15.1624 1.44626 14.8477 1.76907 14.7452 2.17866C13.8842 4.58569 13.3117 13.3193 5.23447 21.3965C4.68589 21.9451 2.05449 24.5765 1.71747 24.9135C-0.572296 27.2032 -0.572686 30.9096 1.71747 33.1997L3.37468 34.8569ZM15.632 37.1709L12.4895 34.0283L14.1467 32.3711L17.2893 35.5137L15.632 37.1709ZM7.50892 22.4188C10.9178 18.8315 13.5018 14.578 15.0889 9.9559L26.6184 21.4854C21.9963 23.0727 17.7427 25.6566 14.1555 29.0654L7.50892 22.4188ZM16.5169 4.7549L31.8194 20.0574C30.2079 20.4613 29.6878 20.5887 29.1695 20.722L15.8524 7.40497C15.9786 6.91436 16.2242 5.92299 16.5169 4.7549ZM3.37468 26.5707L5.86054 24.0849L12.4895 30.7138L10.0036 33.1997C8.63295 34.5703 6.40263 34.5704 5.03189 33.1997L3.37468 31.5425C2.0009 30.1687 2.00059 27.9448 3.37468 26.5707Z" fill="url(#paint0_linear)"/>
<path d="M24.6881 7.10987C25.3352 7.10987 25.8599 6.5852 25.8599 5.93803V1.17257C25.8599 0.525399 25.3352 0.000729007 24.6881 0.000729007C24.0409 0.000729007 23.5162 0.525399 23.5162 1.17257V5.93803C23.5162 6.58528 24.0409 7.10987 24.6881 7.10987Z" fill="url(#paint1_linear)"/>
<path d="M28.8513 9.32987C29.4313 9.61986 30.1347 9.38347 30.4236 8.80583L32.0401 5.57265L33.2342 6.76668C33.4995 7.03206 33.876 7.15424 34.2467 7.09542C34.6174 7.03651 34.9374 6.80363 35.1075 6.46903L37.5293 1.70356C37.8224 1.12663 37.5925 0.421185 37.0155 0.127992C36.4385 -0.16528 35.7331 0.0647908 35.4399 0.641803L33.7497 3.96779L32.5478 2.76587C32.2815 2.49955 31.9033 2.37745 31.5315 2.43776C31.1597 2.49807 30.8396 2.73353 30.671 3.07039L28.3274 7.75774C28.0379 8.33655 28.2725 9.04043 28.8513 9.32987Z" fill="url(#paint2_linear)"/>
<path d="M34.9651 9.87783C34.7547 9.62385 34.447 9.47026 34.1175 9.45487C33.7871 9.43933 33.4673 9.56362 33.2341 9.79681L30.8904 12.1405C30.4328 12.5981 30.4328 13.3401 30.8904 13.7977C31.348 14.2553 32.09 14.2553 32.5476 13.7977L33.9813 12.3641L35.504 14.2021C35.9717 14.7666 36.8375 14.7678 37.3068 14.2045L39.7286 11.2973C40.1428 10.8001 40.0755 10.0612 39.5783 9.6469C39.0809 9.23262 38.3421 9.30003 37.9279 9.7972L36.409 11.6206L34.9651 9.87783Z" fill="url(#paint3_linear)"/>
</g>
<defs>
<linearGradient id="paint0_linear" x1="0" y1="0.000549316" x2="42.7503" y2="3.19507" gradientUnits="userSpaceOnUse">
<stop stop-color="#F9B60B"/>
<stop offset="1" stop-color="#F75F0B"/>
</linearGradient>
<linearGradient id="paint1_linear" x1="0" y1="0.000549316" x2="42.7503" y2="3.19507" gradientUnits="userSpaceOnUse">
<stop stop-color="#F9B60B"/>
<stop offset="1" stop-color="#F75F0B"/>
</linearGradient>
<linearGradient id="paint2_linear" x1="0" y1="0.000549316" x2="42.7503" y2="3.19507" gradientUnits="userSpaceOnUse">
<stop stop-color="#F9B60B"/>
<stop offset="1" stop-color="#F75F0B"/>
</linearGradient>
<linearGradient id="paint3_linear" x1="0" y1="0.000549316" x2="42.7503" y2="3.19507" gradientUnits="userSpaceOnUse">
<stop stop-color="#F9B60B"/>
<stop offset="1" stop-color="#F75F0B"/>
</linearGradient>
<clipPath id="clip0">
<rect width="40" height="40" fill="white"/>
</clipPath>
</defs>
</svg>
