<svg width="40" height="40" viewBox="0 0 40 40" fill="none" xmlns="http://www.w3.org/2000/svg">
<path d="M18.8226 25.936V10.4858C18.8226 9.83856 18.298 9.31396 17.6508 9.31396C17.0038 9.31396 16.4789 9.83856 16.4789 10.4858V25.936C14.4189 26.4597 12.8906 28.3298 12.8906 30.5508C12.8906 33.176 15.0259 35.3116 17.6508 35.3116C20.2756 35.3116 22.4112 33.176 22.4112 30.5508C22.4112 28.3298 20.8826 26.4597 18.8226 25.936ZM17.6508 32.9678C16.3184 32.9678 15.2344 31.8835 15.2344 30.5508C15.2344 29.2178 16.3184 28.1335 17.6508 28.1335C18.9835 28.1335 20.0674 29.2178 20.0674 30.5508C20.0674 31.8835 18.9835 32.9678 17.6508 32.9678Z" fill="url(#paint0_linear)"/>
<path d="M23.4668 23.1036V5.81665C23.4668 2.60925 20.8578 0 17.6508 0C14.444 0 11.835 2.60925 11.835 5.81665V23.1036C9.54987 24.8898 8.20312 27.6288 8.20312 30.5505C8.20312 35.7611 12.4414 40 17.6508 40C22.8604 40 27.0987 35.7611 27.0987 30.5505C27.0987 27.6288 25.752 24.8898 23.4668 23.1036ZM17.6508 37.6562C13.7335 37.6562 10.5469 34.4687 10.5469 30.5505C10.5469 28.1937 11.7126 25.9946 13.6655 24.668C13.9865 24.4498 14.1788 24.0866 14.1788 23.6984V5.81665C14.1788 3.90167 15.7364 2.34375 17.6508 2.34375C19.5654 2.34375 21.123 3.90167 21.123 5.81665V23.6984C21.123 24.0866 21.3153 24.4498 21.6364 24.668C23.5892 25.9946 24.7549 28.1937 24.7549 30.5505C24.7549 34.4687 21.568 37.6562 17.6508 37.6562Z" fill="url(#paint1_linear)"/>
<path d="M30.6143 18.71H26.9824C26.3351 18.71 25.8105 19.2346 25.8105 19.8819C25.8105 20.5292 26.3351 21.0538 26.9824 21.0538H30.6143C31.2613 21.0538 31.7862 20.5292 31.7862 19.8819C31.7862 19.2346 31.2613 18.71 30.6143 18.71Z" fill="url(#paint2_linear)"/>
<path d="M30.6143 14.0216H26.9824C26.3351 14.0216 25.8105 14.5462 25.8105 15.1935C25.8105 15.8408 26.3351 16.3654 26.9824 16.3654H30.6143C31.2613 16.3654 31.7862 15.8408 31.7862 15.1935C31.7862 14.5462 31.2613 14.0216 30.6143 14.0216Z" fill="url(#paint3_linear)"/>
<path d="M30.6143 9.33319H26.9824C26.3351 9.33319 25.8105 9.85779 25.8105 10.5051C25.8105 11.1523 26.3351 11.6769 26.9824 11.6769H30.6143C31.2613 11.6769 31.7862 11.1523 31.7862 10.5051C31.7862 9.85779 31.2613 9.33319 30.6143 9.33319Z" fill="url(#paint4_linear)"/>
<path d="M26.9824 6.98853H30.6143C31.2613 6.98853 31.7862 6.46393 31.7862 5.81665C31.7862 5.16968 31.2613 4.64478 30.6143 4.64478H26.9824C26.3351 4.64478 25.8105 5.16968 25.8105 5.81665C25.8105 6.46393 26.3351 6.98853 26.9824 6.98853Z" fill="url(#paint5_linear)"/>
<defs>
<linearGradient id="paint0_linear" x1="12.8906" y1="9.31396" x2="23.1149" y2="9.59375" gradientUnits="userSpaceOnUse">
<stop stop-color="#0B4EF9"/>
<stop offset="1" stop-color="#AB0BF7"/>
</linearGradient>
<linearGradient id="paint1_linear" x1="8.20313" y1="0" x2="28.4854" y2="0.715936" gradientUnits="userSpaceOnUse">
<stop stop-color="#0B4EF9"/>
<stop offset="1" stop-color="#AB0BF7"/>
</linearGradient>
<linearGradient id="paint2_linear" x1="25.8105" y1="18.71" x2="32.0078" y2="19.8907" gradientUnits="userSpaceOnUse">
<stop stop-color="#0B4EF9"/>
<stop offset="1" stop-color="#AB0BF7"/>
</linearGradient>
<linearGradient id="paint3_linear" x1="25.8105" y1="14.0216" x2="32.0078" y2="15.2023" gradientUnits="userSpaceOnUse">
<stop stop-color="#0B4EF9"/>
<stop offset="1" stop-color="#AB0BF7"/>
</linearGradient>
<linearGradient id="paint4_linear" x1="25.8105" y1="9.33319" x2="32.0078" y2="10.5139" gradientUnits="userSpaceOnUse">
<stop stop-color="#0B4EF9"/>
<stop offset="1" stop-color="#AB0BF7"/>
</linearGradient>
<linearGradient id="paint5_linear" x1="25.8105" y1="4.64478" x2="32.0078" y2="5.82545" gradientUnits="userSpaceOnUse">
<stop stop-color="#0B4EF9"/>
<stop offset="1" stop-color="#AB0BF7"/>
</linearGradient>
</defs>
</svg>
