<svg width="71" height="73" viewBox="0 0 71 73" fill="none" xmlns="http://www.w3.org/2000/svg">
<path d="M42.8878 72.9189H1.19649C0.920518 72.9189 0.655852 72.8093 0.460713 72.6141C0.265574 72.419 0.155946 72.1543 0.155946 71.8784V61.6322C0.155946 61.3562 0.265574 61.0915 0.460713 60.8964C0.655852 60.7012 0.920518 60.5916 1.19649 60.5916H12.3792C13.3091 60.5905 14.2007 60.2206 14.8583 59.563C15.5158 58.9055 15.8857 58.0139 15.8868 57.084V46.2811C15.8855 45.3513 15.5154 44.46 14.8579 43.8027C14.2003 43.1453 13.3089 42.7755 12.3792 42.7744H1.19649C0.920518 42.7744 0.655852 42.6648 0.460713 42.4697C0.265574 42.2745 0.155946 42.0099 0.155946 41.7339V29.9758C0.155946 29.6998 0.265574 29.4352 0.460713 29.24C0.655852 29.0449 0.920518 28.9353 1.19649 28.9353H42.8878C43.1638 28.9353 43.4285 29.0449 43.6236 29.24C43.8187 29.4352 43.9284 29.6998 43.9284 29.9758V41.7339C43.9284 42.0099 43.8187 42.2745 43.6236 42.4697C43.4285 42.6648 43.1638 42.7744 42.8878 42.7744H31.7083C30.7784 42.7755 29.887 43.1455 29.2296 43.8031C28.5721 44.4607 28.2025 45.3523 28.2016 46.2821V57.084C28.2025 58.0138 28.5721 58.9054 29.2296 59.563C29.887 60.2206 30.7784 60.5905 31.7083 60.5916H42.8878C43.1638 60.5916 43.4285 60.7012 43.6236 60.8964C43.8187 61.0915 43.9284 61.3562 43.9284 61.6322V71.8784C43.9284 72.1543 43.8187 72.419 43.6236 72.6141C43.4285 72.8093 43.1638 72.9189 42.8878 72.9189ZM2.23703 70.8378H41.8473V62.6727H31.7083C30.2268 62.6705 28.8067 62.0809 27.7592 61.0333C26.7118 59.9857 26.1225 58.5654 26.1206 57.084V46.2811C26.1222 44.7995 26.7114 43.3791 27.7589 42.3314C28.8064 41.2837 30.2267 40.6943 31.7083 40.6923H41.8473V31.0153H2.23703V40.6923H12.3792C13.8609 40.694 15.2815 41.2833 16.3292 42.3311C17.3769 43.3788 17.9663 44.7993 17.9679 46.2811V57.084C17.9663 58.5657 17.3769 59.9862 16.3292 61.034C15.2815 62.0817 13.8609 62.671 12.3792 62.6727H2.23703V70.8378Z" fill="black"/>
<path d="M42.8878 72.9189H1.19649C0.920518 72.9189 0.655852 72.8093 0.460713 72.6141C0.265574 72.419 0.155946 72.1543 0.155946 71.8784V61.6322C0.155946 61.3562 0.265574 61.0915 0.460713 60.8964C0.655852 60.7012 0.920518 60.5916 1.19649 60.5916H12.3792C13.3091 60.5905 14.2007 60.2206 14.8583 59.563C15.5158 58.9055 15.8857 58.0139 15.8868 57.084V46.2811C15.8855 45.3513 15.5154 44.46 14.8579 43.8027C14.2003 43.1453 13.3089 42.7755 12.3792 42.7744H1.19649C0.920518 42.7744 0.655852 42.6648 0.460713 42.4697C0.265574 42.2745 0.155946 42.0099 0.155946 41.7339V29.9758C0.155946 29.6998 0.265574 29.4352 0.460713 29.24C0.655852 29.0449 0.920518 28.9353 1.19649 28.9353H42.8878C43.1638 28.9353 43.4285 29.0449 43.6236 29.24C43.8187 29.4352 43.9284 29.6998 43.9284 29.9758V41.7339C43.9284 42.0099 43.8187 42.2745 43.6236 42.4697C43.4285 42.6648 43.1638 42.7744 42.8878 42.7744H31.7083C30.7784 42.7755 29.887 43.1455 29.2296 43.8031C28.5721 44.4607 28.2025 45.3523 28.2016 46.2821V57.084C28.2025 58.0138 28.5721 58.9054 29.2296 59.563C29.887 60.2206 30.7784 60.5905 31.7083 60.5916H42.8878C43.1638 60.5916 43.4285 60.7012 43.6236 60.8964C43.8187 61.0915 43.9284 61.3562 43.9284 61.6322V71.8784C43.9284 72.1543 43.8187 72.419 43.6236 72.6141C43.4285 72.8093 43.1638 72.9189 42.8878 72.9189ZM2.23703 70.8378H41.8473V62.6727H31.7083C30.2268 62.6705 28.8067 62.0809 27.7592 61.0333C26.7118 59.9857 26.1225 58.5654 26.1206 57.084V46.2811C26.1222 44.7995 26.7114 43.3791 27.7589 42.3314C28.8064 41.2837 30.2267 40.6943 31.7083 40.6923H41.8473V31.0153H2.23703V40.6923H12.3792C13.8609 40.694 15.2815 41.2833 16.3292 42.3311C17.3769 43.3788 17.9663 44.7993 17.9679 46.2811V57.084C17.9663 58.5657 17.3769 59.9862 16.3292 61.034C15.2815 62.0817 13.8609 62.671 12.3792 62.6727H2.23703V70.8378Z" fill="url(#paint0_linear)" fill-opacity="0.95"/>
<path d="M42.8878 31.0163C42.6908 31.0163 42.4978 30.9602 42.3314 30.8548C42.1649 30.7494 42.0318 30.5989 41.9476 30.4208C41.8633 30.2426 41.8314 30.0443 41.8554 29.8487C41.8795 29.6532 41.9586 29.4685 42.0835 29.3161L63.2065 3.57415L36.0484 2.1819L26.6003 10.0775C26.4957 10.1674 26.3744 10.2356 26.2433 10.2782C26.1122 10.3208 25.9739 10.3369 25.8366 10.3256C25.6992 10.3144 25.5654 10.2759 25.443 10.2125C25.3206 10.149 25.212 10.0619 25.1236 9.95617C25.0352 9.85043 24.9686 9.72817 24.9278 9.5965C24.887 9.46482 24.8728 9.32635 24.886 9.18913C24.8992 9.05192 24.9395 8.91868 25.0046 8.79718C25.0697 8.67567 25.1583 8.56831 25.2652 8.48133L35.0255 0.323498C35.2248 0.156302 35.4794 0.0698052 35.7393 0.081052L65.3635 1.60128C65.5559 1.61094 65.7419 1.67382 65.9007 1.78294C66.0594 1.89205 66.1848 2.0431 66.2628 2.21926C66.3408 2.39543 66.3684 2.58979 66.3424 2.78069C66.3164 2.97159 66.238 3.15154 66.1158 3.30048L43.6922 30.6355C43.5946 30.7545 43.4719 30.8504 43.3328 30.9162C43.1937 30.9821 43.0417 31.0163 42.8878 31.0163Z" fill="black"/>
<path d="M42.8878 31.0163C42.6908 31.0163 42.4978 30.9602 42.3314 30.8548C42.1649 30.7494 42.0318 30.5989 41.9476 30.4208C41.8633 30.2426 41.8314 30.0443 41.8554 29.8487C41.8795 29.6532 41.9586 29.4685 42.0835 29.3161L63.2065 3.57415L36.0484 2.1819L26.6003 10.0775C26.4957 10.1674 26.3744 10.2356 26.2433 10.2782C26.1122 10.3208 25.9739 10.3369 25.8366 10.3256C25.6992 10.3144 25.5654 10.2759 25.443 10.2125C25.3206 10.149 25.212 10.0619 25.1236 9.95617C25.0352 9.85043 24.9686 9.72817 24.9278 9.5965C24.887 9.46482 24.8728 9.32635 24.886 9.18913C24.8992 9.05192 24.9395 8.91868 25.0046 8.79718C25.0697 8.67567 25.1583 8.56831 25.2652 8.48133L35.0255 0.323498C35.2248 0.156302 35.4794 0.0698052 35.7393 0.081052L65.3635 1.60128C65.5559 1.61094 65.7419 1.67382 65.9007 1.78294C66.0594 1.89205 66.1848 2.0431 66.2628 2.21926C66.3408 2.39543 66.3684 2.58979 66.3424 2.78069C66.3164 2.97159 66.238 3.15154 66.1158 3.30048L43.6922 30.6355C43.5946 30.7545 43.4719 30.8504 43.3328 30.9162C43.1937 30.9821 43.0417 31.0163 42.8878 31.0163Z" fill="url(#paint1_linear)" fill-opacity="0.95"/>
<path d="M1.19441 31.0163C0.980709 31.0164 0.772165 30.9507 0.597123 30.8281C0.422081 30.7055 0.289031 30.532 0.216054 30.3311C0.143077 30.1303 0.133714 29.9118 0.189236 29.7055C0.244759 29.4991 0.362474 29.3148 0.526384 29.1777L11.4521 20.0418C11.5566 19.9519 11.6779 19.8836 11.809 19.8411C11.9401 19.7985 12.0784 19.7823 12.2158 19.7936C12.3531 19.8049 12.4869 19.8434 12.6093 19.9068C12.7317 19.9703 12.8403 20.0574 12.9287 20.1631C13.0171 20.2688 13.0837 20.3911 13.1245 20.5228C13.1653 20.6545 13.1795 20.7929 13.1663 20.9301C13.1531 21.0674 13.1128 21.2006 13.0477 21.3221C12.9826 21.4436 12.894 21.551 12.7871 21.6379L1.8614 30.777C1.67392 30.9324 1.43789 31.0171 1.19441 31.0163Z" fill="black"/>
<path d="M1.19441 31.0163C0.980709 31.0164 0.772165 30.9507 0.597123 30.8281C0.422081 30.7055 0.289031 30.532 0.216054 30.3311C0.143077 30.1303 0.133714 29.9118 0.189236 29.7055C0.244759 29.4991 0.362474 29.3148 0.526384 29.1777L11.4521 20.0418C11.5566 19.9519 11.6779 19.8836 11.809 19.8411C11.9401 19.7985 12.0784 19.7823 12.2158 19.7936C12.3531 19.8049 12.4869 19.8434 12.6093 19.9068C12.7317 19.9703 12.8403 20.0574 12.9287 20.1631C13.0171 20.2688 13.0837 20.3911 13.1245 20.5228C13.1653 20.6545 13.1795 20.7929 13.1663 20.9301C13.1531 21.0674 13.1128 21.2006 13.0477 21.3221C12.9826 21.4436 12.894 21.551 12.7871 21.6379L1.8614 30.777C1.67392 30.9324 1.43789 31.0171 1.19441 31.0163Z" fill="url(#paint2_linear)" fill-opacity="0.95"/>
<path d="M17.8431 17.0939C17.6293 17.0942 17.4206 17.0286 17.2454 16.9061C17.0702 16.7836 16.9369 16.6101 16.8638 16.4092C16.7907 16.2083 16.7813 15.9897 16.8368 15.7832C16.8923 15.5768 17.01 15.3924 17.174 15.2552L19.5454 13.2678C19.6502 13.18 19.7713 13.1137 19.9017 13.0727C20.0321 13.0317 20.1693 13.0168 20.3055 13.0288C20.4417 13.0409 20.5742 13.0796 20.6954 13.1428C20.8167 13.2061 20.9242 13.2925 21.012 13.3974C21.0998 13.5022 21.1661 13.6232 21.2071 13.7537C21.2481 13.8841 21.263 14.0213 21.251 14.1575C21.239 14.2937 21.2002 14.4262 21.137 14.5474C21.0738 14.6686 20.9873 14.7762 20.8825 14.864L18.5111 16.8514C18.3238 17.0081 18.0873 17.094 17.8431 17.0939Z" fill="black"/>
<path d="M17.8431 17.0939C17.6293 17.0942 17.4206 17.0286 17.2454 16.9061C17.0702 16.7836 16.9369 16.6101 16.8638 16.4092C16.7907 16.2083 16.7813 15.9897 16.8368 15.7832C16.8923 15.5768 17.01 15.3924 17.174 15.2552L19.5454 13.2678C19.6502 13.18 19.7713 13.1137 19.9017 13.0727C20.0321 13.0317 20.1693 13.0168 20.3055 13.0288C20.4417 13.0409 20.5742 13.0796 20.6954 13.1428C20.8167 13.2061 20.9242 13.2925 21.012 13.3974C21.0998 13.5022 21.1661 13.6232 21.2071 13.7537C21.2481 13.8841 21.263 14.0213 21.251 14.1575C21.239 14.2937 21.2002 14.4262 21.137 14.5474C21.0738 14.6686 20.9873 14.7762 20.8825 14.864L18.5111 16.8514C18.3238 17.0081 18.0873 17.094 17.8431 17.0939Z" fill="url(#paint3_linear)" fill-opacity="0.95"/>
<path d="M42.8878 42.7744C42.6926 42.7744 42.5013 42.7194 42.3358 42.6158C42.1704 42.5122 42.0374 42.3642 41.9521 42.1886C41.8667 42.013 41.8326 41.8169 41.8534 41.6228C41.8743 41.4287 41.9493 41.2443 42.07 41.0908L64.7537 12.2408L64.2678 2.6928C64.254 2.41683 64.3504 2.14668 64.5358 1.94179C64.7212 1.73689 64.9804 1.61403 65.2563 1.60023C65.5323 1.58643 65.8024 1.68283 66.0073 1.86821C66.2122 2.05359 66.3351 2.31278 66.3489 2.58874L66.8525 12.5249C66.8652 12.7761 66.7865 13.0234 66.6309 13.221L43.7109 42.3769C43.613 42.5015 43.488 42.602 43.3453 42.6709C43.2027 42.7398 43.0462 42.7752 42.8878 42.7744Z" fill="black"/>
<path d="M42.8878 42.7744C42.6926 42.7744 42.5013 42.7194 42.3358 42.6158C42.1704 42.5122 42.0374 42.3642 41.9521 42.1886C41.8667 42.013 41.8326 41.8169 41.8534 41.6228C41.8743 41.4287 41.9493 41.2443 42.07 41.0908L64.7537 12.2408L64.2678 2.6928C64.254 2.41683 64.3504 2.14668 64.5358 1.94179C64.7212 1.73689 64.9804 1.61403 65.2563 1.60023C65.5323 1.58643 65.8024 1.68283 66.0073 1.86821C66.2122 2.05359 66.3351 2.31278 66.3489 2.58874L66.8525 12.5249C66.8652 12.7761 66.7865 13.0234 66.6309 13.221L43.7109 42.3769C43.613 42.5015 43.488 42.602 43.3453 42.6709C43.2027 42.7398 43.0462 42.7752 42.8878 42.7744Z" fill="url(#paint4_linear)" fill-opacity="0.95"/>
<path d="M42.8961 62.6726C42.6994 62.6724 42.5067 62.6165 42.3405 62.5112C42.1743 62.406 42.0413 62.2557 41.957 62.078C41.8727 61.9002 41.8405 61.7022 41.8642 61.5069C41.8879 61.3115 41.9664 61.1269 42.0908 60.9745L68.4851 28.6064C68.6595 28.3924 68.9118 28.2564 69.1865 28.2284C69.4611 28.2004 69.7357 28.2826 69.9497 28.4571C70.1637 28.6315 70.2997 28.8838 70.3277 29.1584C70.3557 29.4331 70.2734 29.7076 70.099 29.9216L43.7046 62.2897C43.6068 62.4096 43.4835 62.5062 43.3436 62.5725C43.2038 62.6387 43.0509 62.6729 42.8961 62.6726Z" fill="black"/>
<path d="M42.8961 62.6726C42.6994 62.6724 42.5067 62.6165 42.3405 62.5112C42.1743 62.406 42.0413 62.2557 41.957 62.078C41.8727 61.9002 41.8405 61.7022 41.8642 61.5069C41.8879 61.3115 41.9664 61.1269 42.0908 60.9745L68.4851 28.6064C68.6595 28.3924 68.9118 28.2564 69.1865 28.2284C69.4611 28.2004 69.7357 28.2826 69.9497 28.4571C70.1637 28.6315 70.2997 28.8838 70.3277 29.1584C70.3557 29.4331 70.2734 29.7076 70.099 29.9216L43.7046 62.2897C43.6068 62.4096 43.4835 62.5062 43.3436 62.5725C43.2038 62.6387 43.0509 62.6729 42.8961 62.6726Z" fill="url(#paint5_linear)" fill-opacity="0.95"/>
<path d="M42.9034 72.9116C42.7074 72.9114 42.5153 72.8558 42.3494 72.7513C42.1836 72.6467 42.0506 72.4974 41.9659 72.3206C41.8812 72.1438 41.8481 71.9466 41.8706 71.7518C41.8931 71.557 41.9701 71.3725 42.0929 71.2196L68.7411 37.9952L68.3041 30.3066H64.5633C62.636 30.3109 60.7637 29.6649 59.2489 28.4733C57.7342 27.2816 56.6657 25.6139 56.2161 23.7398C56.1511 23.4715 56.1954 23.1885 56.3391 22.9528C56.4828 22.7172 56.7142 22.5483 56.9825 22.4833C57.2507 22.4183 57.5338 22.4626 57.7694 22.6063C58.0051 22.75 58.1739 22.9814 58.2389 23.2497C58.5794 24.6697 59.389 25.9334 60.5366 26.8364C61.6843 27.7394 63.103 28.2288 64.5633 28.2255H69.2874C69.5536 28.2251 69.8098 28.3267 70.0033 28.5094C70.1969 28.6921 70.313 28.9421 70.3279 29.2078L70.8482 38.2751C70.8628 38.5315 70.782 38.7843 70.6214 38.9847L43.7203 72.5213C43.6223 72.6437 43.498 72.7424 43.3565 72.8099C43.2151 72.8775 43.0602 72.9122 42.9034 72.9116Z" fill="black"/>
<path d="M42.9034 72.9116C42.7074 72.9114 42.5153 72.8558 42.3494 72.7513C42.1836 72.6467 42.0506 72.4974 41.9659 72.3206C41.8812 72.1438 41.8481 71.9466 41.8706 71.7518C41.8931 71.557 41.9701 71.3725 42.0929 71.2196L68.7411 37.9952L68.3041 30.3066H64.5633C62.636 30.3109 60.7637 29.6649 59.2489 28.4733C57.7342 27.2816 56.6657 25.6139 56.2161 23.7398C56.1511 23.4715 56.1954 23.1885 56.3391 22.9528C56.4828 22.7172 56.7142 22.5483 56.9825 22.4833C57.2507 22.4183 57.5338 22.4626 57.7694 22.6063C58.0051 22.75 58.1739 22.9814 58.2389 23.2497C58.5794 24.6697 59.389 25.9334 60.5366 26.8364C61.6843 27.7394 63.103 28.2288 64.5633 28.2255H69.2874C69.5536 28.2251 69.8098 28.3267 70.0033 28.5094C70.1969 28.6921 70.313 28.9421 70.3279 29.2078L70.8482 38.2751C70.8628 38.5315 70.782 38.7843 70.6214 38.9847L43.7203 72.5213C43.6223 72.6437 43.498 72.7424 43.3565 72.8099C43.2151 72.8775 43.0602 72.9122 42.9034 72.9116Z" fill="url(#paint6_linear)" fill-opacity="0.95"/>
<path d="M1.19648 62.6726C0.989394 62.673 0.786897 62.6116 0.614908 62.4963C0.442919 62.3809 0.309262 62.2169 0.231043 62.0251C0.152823 61.8334 0.133599 61.6226 0.17583 61.4199C0.218062 61.2171 0.319828 61.0316 0.468105 60.8871L16.2011 45.537C16.2989 45.4413 16.4146 45.3659 16.5416 45.315C16.6686 45.264 16.8044 45.2386 16.9412 45.2402C17.0781 45.2417 17.2132 45.2702 17.339 45.324C17.4648 45.3778 17.5788 45.4558 17.6745 45.5536C17.7701 45.6515 17.8456 45.7672 17.8965 45.8942C17.9474 46.0212 17.9729 46.157 17.9713 46.2938C17.9698 46.4306 17.9413 46.5658 17.8875 46.6916C17.8337 46.8174 17.7557 46.9314 17.6578 47.0271L1.92278 62.3771C1.72848 62.5666 1.46785 62.6726 1.19648 62.6726Z" fill="black"/>
<path d="M1.19648 62.6726C0.989394 62.673 0.786897 62.6116 0.614908 62.4963C0.442919 62.3809 0.309262 62.2169 0.231043 62.0251C0.152823 61.8334 0.133599 61.6226 0.17583 61.4199C0.218062 61.2171 0.319828 61.0316 0.468105 60.8871L16.2011 45.537C16.2989 45.4413 16.4146 45.3659 16.5416 45.315C16.6686 45.264 16.8044 45.2386 16.9412 45.2402C17.0781 45.2417 17.2132 45.2702 17.339 45.324C17.4648 45.3778 17.5788 45.4558 17.6745 45.5536C17.7701 45.6515 17.8456 45.7672 17.8965 45.8942C17.9474 46.0212 17.9729 46.157 17.9713 46.2938C17.9698 46.4306 17.9413 46.5658 17.8875 46.6916C17.8337 46.8174 17.7557 46.9314 17.6578 47.0271L1.92278 62.3771C1.72848 62.5666 1.46785 62.6726 1.19648 62.6726Z" fill="url(#paint7_linear)" fill-opacity="0.95"/>
<defs>
<linearGradient id="paint0_linear" x1="0.153503" y1="0.0800781" x2="75.735" y2="5.56169" gradientUnits="userSpaceOnUse">
<stop stop-color="#2CBCEA"/>
<stop offset="1" stop-color="#302CEA"/>
</linearGradient>
<linearGradient id="paint1_linear" x1="0.153503" y1="0.0800781" x2="75.735" y2="5.56169" gradientUnits="userSpaceOnUse">
<stop stop-color="#2CBCEA"/>
<stop offset="1" stop-color="#302CEA"/>
</linearGradient>
<linearGradient id="paint2_linear" x1="0.153503" y1="0.0800781" x2="75.735" y2="5.56169" gradientUnits="userSpaceOnUse">
<stop stop-color="#2CBCEA"/>
<stop offset="1" stop-color="#302CEA"/>
</linearGradient>
<linearGradient id="paint3_linear" x1="0.153503" y1="0.0800781" x2="75.735" y2="5.56169" gradientUnits="userSpaceOnUse">
<stop stop-color="#2CBCEA"/>
<stop offset="1" stop-color="#302CEA"/>
</linearGradient>
<linearGradient id="paint4_linear" x1="0.153503" y1="0.0800781" x2="75.735" y2="5.56169" gradientUnits="userSpaceOnUse">
<stop stop-color="#2CBCEA"/>
<stop offset="1" stop-color="#302CEA"/>
</linearGradient>
<linearGradient id="paint5_linear" x1="0.153503" y1="0.0800781" x2="75.735" y2="5.56169" gradientUnits="userSpaceOnUse">
<stop stop-color="#2CBCEA"/>
<stop offset="1" stop-color="#302CEA"/>
</linearGradient>
<linearGradient id="paint6_linear" x1="0.153503" y1="0.0800781" x2="75.735" y2="5.56169" gradientUnits="userSpaceOnUse">
<stop stop-color="#2CBCEA"/>
<stop offset="1" stop-color="#302CEA"/>
</linearGradient>
<linearGradient id="paint7_linear" x1="0.153503" y1="0.0800781" x2="75.735" y2="5.56169" gradientUnits="userSpaceOnUse">
<stop stop-color="#2CBCEA"/>
<stop offset="1" stop-color="#302CEA"/>
</linearGradient>
</defs>
</svg>
