<svg width="79" height="79" viewBox="0 0 79 79" fill="none" xmlns="http://www.w3.org/2000/svg">
<path d="M14.3832 36.6793C14.6062 36.8963 14.9056 37.0168 15.2167 37.0146C15.5278 37.0125 15.8256 36.888 16.0456 36.6679C16.2656 36.4479 16.3901 36.1502 16.3922 35.839C16.3943 35.5279 16.2738 35.2285 16.0568 35.0055L3.62194 22.5707L7.69784 18.54L11.0638 21.9059L26.4154 37.2575L2.11227 61.5606C1.81916 61.8537 1.58666 62.2017 1.42803 62.5846C1.26941 62.9676 1.18776 63.378 1.18776 63.7925C1.18776 64.207 1.26941 64.6174 1.42803 65.0004C1.58666 65.3833 1.81916 65.7313 2.11227 66.0244L13.1887 77.1008C13.7811 77.6917 14.5837 78.0236 15.4205 78.0236C16.2572 78.0236 17.0598 77.6917 17.6523 77.1008L41.9554 52.7977L59.4761 70.3184C59.5266 70.3679 59.5813 70.4126 59.6399 70.4522C59.6558 70.4634 59.672 70.4739 59.6886 70.4841C59.7394 70.5161 59.7925 70.5441 59.8476 70.568C59.8561 70.5715 59.8641 70.5765 59.8728 70.58C59.9242 70.6005 59.9769 70.6175 60.0306 70.6307L72.6754 73.7461C72.8731 73.7949 73.0802 73.7917 73.2764 73.737C73.4726 73.6823 73.6514 73.5779 73.7954 73.4338C73.9394 73.2898 74.0439 73.111 74.0986 72.9148C74.1533 72.7186 74.1564 72.5116 74.1077 72.3138L70.9921 59.6691C70.9789 59.6153 70.9619 59.5626 70.9414 59.5112C70.9378 59.5026 70.9329 59.4945 70.9292 59.4858C70.9053 59.4308 70.8774 59.3777 70.8455 59.327C70.8353 59.3104 70.8246 59.2943 70.8134 59.2781C70.7738 59.2196 70.729 59.1648 70.6796 59.1143L53.1591 41.5938L77.3158 17.4388C77.6089 17.1457 77.8414 16.7978 78.0001 16.4148C78.1587 16.0319 78.2403 15.6215 78.2403 15.207C78.2403 14.7925 78.1587 14.382 78.0001 13.9991C77.8414 13.6161 77.6089 13.2682 77.3158 12.9751L66.2394 1.89844C65.647 1.30747 64.8444 0.975586 64.0076 0.975586C63.1708 0.975586 62.3682 1.30747 61.7758 1.89844L55.4263 8.24783L37.6197 26.0546L18.0831 6.51741C17.8611 6.29546 17.5601 6.17077 17.2462 6.17077C16.9323 6.17077 16.6313 6.29546 16.4093 6.51741L15.8301 7.09659L14.2271 5.46678C13.6775 4.90451 13.0208 4.45813 12.2957 4.154C11.5706 3.84988 10.7919 3.69418 10.0057 3.69612H10.0013C8.82924 3.69619 7.6835 4.04381 6.70899 4.69503C5.73448 5.34624 4.97495 6.2718 4.52645 7.35467C4.07795 8.43754 3.96063 9.62909 4.18931 10.7786C4.41799 11.9282 4.98241 12.9841 5.81119 13.8129L7.45225 15.4535L1.11213 21.7244C1.00121 21.8341 0.913063 21.9646 0.852761 22.1085C0.792458 22.2524 0.761187 22.4067 0.760747 22.5627C0.760307 22.7187 0.790707 22.8732 0.850197 23.0174C0.909687 23.1616 0.997095 23.2927 1.10739 23.403L14.3832 36.6793ZM68.1696 59.9523L60.3137 67.8078L13.5748 21.0693L21.4305 13.2134L68.1696 59.9523ZM15.9791 75.428C15.8309 75.5757 15.6301 75.6587 15.4209 75.6587C15.2116 75.6587 15.0109 75.5757 14.8627 75.428L3.78626 64.3516C3.71299 64.2783 3.65486 64.1913 3.6152 64.0956C3.57555 63.9998 3.55514 63.8972 3.55514 63.7936C3.55514 63.69 3.57555 63.5874 3.6152 63.4916C3.65486 63.3959 3.71299 63.3089 3.78626 63.2356L20.3501 46.6718L25.6368 51.9585C25.7464 52.0699 25.8769 52.1585 26.0209 52.2191C26.1649 52.2798 26.3195 52.3113 26.4757 52.3119C26.632 52.3126 26.7868 52.2822 26.9312 52.2227C27.0757 52.1632 27.207 52.0757 27.3174 51.9652C27.4279 51.8547 27.5154 51.7234 27.5749 51.5789C27.6343 51.4345 27.6646 51.2796 27.664 51.1234C27.6633 50.9672 27.6317 50.8126 27.5711 50.6686C27.5104 50.5246 27.4218 50.3941 27.3104 50.2845L22.0237 44.9978L28.0898 38.9319L40.2824 51.1243L15.9791 75.428ZM62.6345 68.8348L69.1964 62.2732L71.3416 70.9801L62.6345 68.8348ZM44.292 22.7299L49.5787 28.0166C49.6883 28.128 49.8189 28.2165 49.9628 28.2772C50.1068 28.3378 50.2614 28.3694 50.4176 28.37C50.5739 28.3706 50.7287 28.3403 50.8732 28.2808C51.0176 28.2213 51.1489 28.1337 51.2594 28.0233C51.3698 27.9128 51.4573 27.7815 51.5168 27.637C51.5763 27.4925 51.6066 27.3377 51.6059 27.1815C51.6053 27.0252 51.5737 26.8707 51.513 26.7267C51.4523 26.5827 51.3637 26.4522 51.2523 26.3426L45.9656 21.0559L56.2629 10.7586L59.3917 13.8875C59.501 13.9998 59.6316 14.0893 59.7759 14.1508C59.9201 14.2122 60.0751 14.2444 60.2319 14.2455C60.3887 14.2465 60.5441 14.2164 60.6891 14.1569C60.8342 14.0974 60.966 14.0097 61.0768 13.8988C61.1877 13.7879 61.2754 13.6561 61.3349 13.5111C61.3944 13.366 61.4245 13.2106 61.4234 13.0538C61.4223 12.897 61.3901 12.742 61.3287 12.5978C61.2672 12.4536 61.1777 12.323 61.0653 12.2137L57.9365 9.08522L63.4492 3.57244C63.5974 3.42473 63.7981 3.34178 64.0073 3.34178C64.2165 3.34178 64.4172 3.42473 64.5654 3.57244L75.642 14.6489C75.7897 14.797 75.8727 14.9977 75.8727 15.2069C75.8727 15.416 75.7897 15.6167 75.642 15.7648L51.4861 39.921L39.2935 27.7284L44.292 22.7299ZM19.7569 11.5396L11.901 19.3955L9.39018 16.8847L17.2461 9.0288L19.7569 11.5396ZM7.48558 12.1395C6.98782 11.6418 6.64883 11.0076 6.51149 10.3172C6.37414 9.62681 6.44461 8.91119 6.71397 8.26084C6.98334 7.6105 7.4395 7.05464 8.02479 6.66355C8.61007 6.27246 9.29818 6.06371 10.0021 6.0637H10.0047C10.4768 6.06261 10.9444 6.15615 11.3798 6.33881C11.8151 6.52146 12.2095 6.78953 12.5395 7.12716L14.1571 8.77078L9.35783 13.5691L9.13492 13.7894L7.48558 12.1395Z" fill="black"/>
<path d="M14.3832 36.6793C14.6062 36.8963 14.9056 37.0168 15.2167 37.0146C15.5278 37.0125 15.8256 36.888 16.0456 36.6679C16.2656 36.4479 16.3901 36.1502 16.3922 35.839C16.3943 35.5279 16.2738 35.2285 16.0568 35.0055L3.62194 22.5707L7.69784 18.54L11.0638 21.9059L26.4154 37.2575L2.11227 61.5606C1.81916 61.8537 1.58666 62.2017 1.42803 62.5846C1.26941 62.9676 1.18776 63.378 1.18776 63.7925C1.18776 64.207 1.26941 64.6174 1.42803 65.0004C1.58666 65.3833 1.81916 65.7313 2.11227 66.0244L13.1887 77.1008C13.7811 77.6917 14.5837 78.0236 15.4205 78.0236C16.2572 78.0236 17.0598 77.6917 17.6523 77.1008L41.9554 52.7977L59.4761 70.3184C59.5266 70.3679 59.5813 70.4126 59.6399 70.4522C59.6558 70.4634 59.672 70.4739 59.6886 70.4841C59.7394 70.5161 59.7925 70.5441 59.8476 70.568C59.8561 70.5715 59.8641 70.5765 59.8728 70.58C59.9242 70.6005 59.9769 70.6175 60.0306 70.6307L72.6754 73.7461C72.8731 73.7949 73.0802 73.7917 73.2764 73.737C73.4726 73.6823 73.6514 73.5779 73.7954 73.4338C73.9394 73.2898 74.0439 73.111 74.0986 72.9148C74.1533 72.7186 74.1564 72.5116 74.1077 72.3138L70.9921 59.6691C70.9789 59.6153 70.9619 59.5626 70.9414 59.5112C70.9378 59.5026 70.9329 59.4945 70.9292 59.4858C70.9053 59.4308 70.8774 59.3777 70.8455 59.327C70.8353 59.3104 70.8246 59.2943 70.8134 59.2781C70.7738 59.2196 70.729 59.1648 70.6796 59.1143L53.1591 41.5938L77.3158 17.4388C77.6089 17.1457 77.8414 16.7978 78.0001 16.4148C78.1587 16.0319 78.2403 15.6215 78.2403 15.207C78.2403 14.7925 78.1587 14.382 78.0001 13.9991C77.8414 13.6161 77.6089 13.2682 77.3158 12.9751L66.2394 1.89844C65.647 1.30747 64.8444 0.975586 64.0076 0.975586C63.1708 0.975586 62.3682 1.30747 61.7758 1.89844L55.4263 8.24783L37.6197 26.0546L18.0831 6.51741C17.8611 6.29546 17.5601 6.17077 17.2462 6.17077C16.9323 6.17077 16.6313 6.29546 16.4093 6.51741L15.8301 7.09659L14.2271 5.46678C13.6775 4.90451 13.0208 4.45813 12.2957 4.154C11.5706 3.84988 10.7919 3.69418 10.0057 3.69612H10.0013C8.82924 3.69619 7.6835 4.04381 6.70899 4.69503C5.73448 5.34624 4.97495 6.2718 4.52645 7.35467C4.07795 8.43754 3.96063 9.62909 4.18931 10.7786C4.41799 11.9282 4.98241 12.9841 5.81119 13.8129L7.45225 15.4535L1.11213 21.7244C1.00121 21.8341 0.913063 21.9646 0.852761 22.1085C0.792458 22.2524 0.761187 22.4067 0.760747 22.5627C0.760307 22.7187 0.790707 22.8732 0.850197 23.0174C0.909687 23.1616 0.997095 23.2927 1.10739 23.403L14.3832 36.6793ZM68.1696 59.9523L60.3137 67.8078L13.5748 21.0693L21.4305 13.2134L68.1696 59.9523ZM15.9791 75.428C15.8309 75.5757 15.6301 75.6587 15.4209 75.6587C15.2116 75.6587 15.0109 75.5757 14.8627 75.428L3.78626 64.3516C3.71299 64.2783 3.65486 64.1913 3.6152 64.0956C3.57555 63.9998 3.55514 63.8972 3.55514 63.7936C3.55514 63.69 3.57555 63.5874 3.6152 63.4916C3.65486 63.3959 3.71299 63.3089 3.78626 63.2356L20.3501 46.6718L25.6368 51.9585C25.7464 52.0699 25.8769 52.1585 26.0209 52.2191C26.1649 52.2798 26.3195 52.3113 26.4757 52.3119C26.632 52.3126 26.7868 52.2822 26.9312 52.2227C27.0757 52.1632 27.207 52.0757 27.3174 51.9652C27.4279 51.8547 27.5154 51.7234 27.5749 51.5789C27.6343 51.4345 27.6646 51.2796 27.664 51.1234C27.6633 50.9672 27.6317 50.8126 27.5711 50.6686C27.5104 50.5246 27.4218 50.3941 27.3104 50.2845L22.0237 44.9978L28.0898 38.9319L40.2824 51.1243L15.9791 75.428ZM62.6345 68.8348L69.1964 62.2732L71.3416 70.9801L62.6345 68.8348ZM44.292 22.7299L49.5787 28.0166C49.6883 28.128 49.8189 28.2165 49.9628 28.2772C50.1068 28.3378 50.2614 28.3694 50.4176 28.37C50.5739 28.3706 50.7287 28.3403 50.8732 28.2808C51.0176 28.2213 51.1489 28.1337 51.2594 28.0233C51.3698 27.9128 51.4573 27.7815 51.5168 27.637C51.5763 27.4925 51.6066 27.3377 51.6059 27.1815C51.6053 27.0252 51.5737 26.8707 51.513 26.7267C51.4523 26.5827 51.3637 26.4522 51.2523 26.3426L45.9656 21.0559L56.2629 10.7586L59.3917 13.8875C59.501 13.9998 59.6316 14.0893 59.7759 14.1508C59.9201 14.2122 60.0751 14.2444 60.2319 14.2455C60.3887 14.2465 60.5441 14.2164 60.6891 14.1569C60.8342 14.0974 60.966 14.0097 61.0768 13.8988C61.1877 13.7879 61.2754 13.6561 61.3349 13.5111C61.3944 13.366 61.4245 13.2106 61.4234 13.0538C61.4223 12.897 61.3901 12.742 61.3287 12.5978C61.2672 12.4536 61.1777 12.323 61.0653 12.2137L57.9365 9.08522L63.4492 3.57244C63.5974 3.42473 63.7981 3.34178 64.0073 3.34178C64.2165 3.34178 64.4172 3.42473 64.5654 3.57244L75.642 14.6489C75.7897 14.797 75.8727 14.9977 75.8727 15.2069C75.8727 15.416 75.7897 15.6167 75.642 15.7648L51.4861 39.921L39.2935 27.7284L44.292 22.7299ZM19.7569 11.5396L11.901 19.3955L9.39018 16.8847L17.2461 9.0288L19.7569 11.5396ZM7.48558 12.1395C6.98782 11.6418 6.64883 11.0076 6.51149 10.3172C6.37414 9.62681 6.44461 8.91119 6.71397 8.26084C6.98334 7.6105 7.4395 7.05464 8.02479 6.66355C8.61007 6.27246 9.29818 6.06371 10.0021 6.0637H10.0047C10.4768 6.06261 10.9444 6.15615 11.3798 6.33881C11.8151 6.52146 12.2095 6.78953 12.5395 7.12716L14.1571 8.77078L9.35783 13.5691L9.13492 13.7894L7.48558 12.1395Z" fill="url(#paint0_linear)" fill-opacity="0.95"/>
<defs>
<linearGradient id="paint0_linear" x1="0.760742" y1="0.975586" x2="83.5624" y2="7.19749" gradientUnits="userSpaceOnUse">
<stop stop-color="#2CBCEA"/>
<stop offset="1" stop-color="#302CEA"/>
</linearGradient>
</defs>
</svg>
