<svg width="40" height="38" viewBox="0 0 40 38" fill="none" xmlns="http://www.w3.org/2000/svg">
<path d="M26.25 0.25C19.585 0.25 12.5 2.44 12.5 6.5V11.5C12.5 12.19 13.06 12.75 13.75 12.75C14.44 12.75 15 12.19 15 11.5V10.1975C17.6525 11.87 22.0325 12.75 26.25 12.75C30.4675 12.75 34.8475 11.87 37.5 10.1975V11.5C37.5 12.7225 34.425 14.6725 28.645 15.155C27.96 15.21 27.4475 15.8175 27.505 16.505C27.5575 17.1575 28.105 17.65 28.7475 17.65C28.785 17.65 28.8175 17.6475 28.855 17.645C32.11 17.3725 35.3525 16.53 37.5 15.1625V16.5C37.5 17.5675 35.235 19.1025 31.0325 19.845C30.355 19.965 29.9 20.615 30.02 21.2925C30.1275 21.8975 30.655 22.325 31.2475 22.325C31.32 22.325 31.395 22.32 31.4675 22.305C34.01 21.8575 36.045 21.125 37.5 20.195V21.5C37.5 22.5675 35.235 24.1025 31.0325 24.845C30.355 24.965 29.9 25.615 30.02 26.2925C30.1275 26.8975 30.655 27.325 31.2475 27.325C31.32 27.325 31.395 27.32 31.4675 27.305C34.01 26.8575 36.045 26.1225 37.5 25.195V26.5C37.5 27.5675 35.235 29.1025 31.0325 29.845C30.355 29.965 29.9 30.615 30.02 31.2925C30.1275 31.8975 30.655 32.325 31.2475 32.325C31.32 32.325 31.395 32.32 31.4675 32.305C34.01 31.8575 36.045 31.1225 37.5 30.195V31.5C37.5 32.7225 34.425 34.6725 28.645 35.155C27.96 35.21 27.4475 35.8175 27.505 36.505C27.5575 37.1575 28.105 37.65 28.7475 37.65C28.785 37.65 28.8175 37.6475 28.855 37.645C34.4025 37.18 40 35.1025 40 31.5V6.5C40 2.44 32.915 0.25 26.25 0.25ZM26.25 10.25C19.3825 10.25 15 8.0275 15 6.5C15 4.9725 19.3825 2.75 26.25 2.75C33.1175 2.75 37.5 4.9725 37.5 6.5C37.5 8.0275 33.1175 10.25 26.25 10.25Z" fill="#171631"/>
<path d="M26.25 0.25C19.585 0.25 12.5 2.44 12.5 6.5V11.5C12.5 12.19 13.06 12.75 13.75 12.75C14.44 12.75 15 12.19 15 11.5V10.1975C17.6525 11.87 22.0325 12.75 26.25 12.75C30.4675 12.75 34.8475 11.87 37.5 10.1975V11.5C37.5 12.7225 34.425 14.6725 28.645 15.155C27.96 15.21 27.4475 15.8175 27.505 16.505C27.5575 17.1575 28.105 17.65 28.7475 17.65C28.785 17.65 28.8175 17.6475 28.855 17.645C32.11 17.3725 35.3525 16.53 37.5 15.1625V16.5C37.5 17.5675 35.235 19.1025 31.0325 19.845C30.355 19.965 29.9 20.615 30.02 21.2925C30.1275 21.8975 30.655 22.325 31.2475 22.325C31.32 22.325 31.395 22.32 31.4675 22.305C34.01 21.8575 36.045 21.125 37.5 20.195V21.5C37.5 22.5675 35.235 24.1025 31.0325 24.845C30.355 24.965 29.9 25.615 30.02 26.2925C30.1275 26.8975 30.655 27.325 31.2475 27.325C31.32 27.325 31.395 27.32 31.4675 27.305C34.01 26.8575 36.045 26.1225 37.5 25.195V26.5C37.5 27.5675 35.235 29.1025 31.0325 29.845C30.355 29.965 29.9 30.615 30.02 31.2925C30.1275 31.8975 30.655 32.325 31.2475 32.325C31.32 32.325 31.395 32.32 31.4675 32.305C34.01 31.8575 36.045 31.1225 37.5 30.195V31.5C37.5 32.7225 34.425 34.6725 28.645 35.155C27.96 35.21 27.4475 35.8175 27.505 36.505C27.5575 37.1575 28.105 37.65 28.7475 37.65C28.785 37.65 28.8175 37.6475 28.855 37.645C34.4025 37.18 40 35.1025 40 31.5V6.5C40 2.44 32.915 0.25 26.25 0.25ZM26.25 10.25C19.3825 10.25 15 8.0275 15 6.5C15 4.9725 19.3825 2.75 26.25 2.75C33.1175 2.75 37.5 4.9725 37.5 6.5C37.5 8.0275 33.1175 10.25 26.25 10.25Z" fill="url(#paint0_linear)"/>
<path d="M13.75 15.25C7.085 15.25 0 17.44 0 21.5V31.5C0 35.56 7.085 37.75 13.75 37.75C20.415 37.75 27.5 35.56 27.5 31.5V21.5C27.5 17.44 20.415 15.25 13.75 15.25ZM25 31.5C25 33.0275 20.6175 35.25 13.75 35.25C6.8825 35.25 2.5 33.0275 2.5 31.5V30.1975C5.1525 31.87 9.5325 32.75 13.75 32.75C17.9675 32.75 22.3475 31.87 25 30.1975V31.5ZM25 26.5C25 28.0275 20.6175 30.25 13.75 30.25C6.8825 30.25 2.5 28.0275 2.5 26.5V25.1975C5.1525 26.87 9.5325 27.75 13.75 27.75C17.9675 27.75 22.3475 26.87 25 25.1975V26.5ZM13.75 25.25C6.8825 25.25 2.5 23.0275 2.5 21.5C2.5 19.9725 6.8825 17.75 13.75 17.75C20.6175 17.75 25 19.9725 25 21.5C25 23.0275 20.6175 25.25 13.75 25.25Z" fill="#171631"/>
<path d="M13.75 15.25C7.085 15.25 0 17.44 0 21.5V31.5C0 35.56 7.085 37.75 13.75 37.75C20.415 37.75 27.5 35.56 27.5 31.5V21.5C27.5 17.44 20.415 15.25 13.75 15.25ZM25 31.5C25 33.0275 20.6175 35.25 13.75 35.25C6.8825 35.25 2.5 33.0275 2.5 31.5V30.1975C5.1525 31.87 9.5325 32.75 13.75 32.75C17.9675 32.75 22.3475 31.87 25 30.1975V31.5ZM25 26.5C25 28.0275 20.6175 30.25 13.75 30.25C6.8825 30.25 2.5 28.0275 2.5 26.5V25.1975C5.1525 26.87 9.5325 27.75 13.75 27.75C17.9675 27.75 22.3475 26.87 25 25.1975V26.5ZM13.75 25.25C6.8825 25.25 2.5 23.0275 2.5 21.5C2.5 19.9725 6.8825 17.75 13.75 17.75C20.6175 17.75 25 19.9725 25 21.5C25 23.0275 20.6175 25.25 13.75 25.25Z" fill="url(#paint1_linear)"/>
<defs>
<linearGradient id="paint0_linear" x1="0" y1="0.25" x2="42.7176" y2="3.65482" gradientUnits="userSpaceOnUse">
<stop stop-color="#2CBCEA"/>
<stop offset="1" stop-color="#302CEA"/>
</linearGradient>
<linearGradient id="paint1_linear" x1="0" y1="0.25" x2="42.7176" y2="3.65482" gradientUnits="userSpaceOnUse">
<stop stop-color="#2CBCEA"/>
<stop offset="1" stop-color="#302CEA"/>
</linearGradient>
</defs>
</svg>
