<svg width="76" height="89" viewBox="0 0 76 89" fill="none" xmlns="http://www.w3.org/2000/svg">
<path d="M69.0268 39.7403L68.2588 39.7396V34.8465C68.2588 31.0444 69.7652 27.4096 71.7674 25.1681C74.4402 22.1781 75.9121 18.3207 75.9121 14.3066C75.9121 8.74135 73.0202 3.43942 68.3647 0.469918C66.3792 -0.79642 63.7727 0.647396 63.7727 3.00103V13.2727C63.7727 15.5695 61.9042 17.438 59.6074 17.438C57.3106 17.438 55.442 15.5695 55.442 13.2727V3.0012C55.442 0.642008 52.8302 -0.793465 50.8499 0.470091C46.1945 3.43942 43.3025 8.74135 43.3025 14.3068C43.3025 18.3208 44.7745 22.1783 47.4467 25.1674C49.1638 27.0929 50.5949 30.1843 50.8925 33.4889C47.2852 33.8161 44.1171 35.437 42.0591 38.0502L39.8341 40.8757C38.7204 42.2902 37.0489 43.1014 35.2483 43.1014H33.2726C33.1984 40.3605 30.9471 38.1532 28.1888 38.1532C25.8373 38.1532 23.8541 39.7575 23.2738 41.9288H4.19412C1.88134 41.9288 0 43.8103 0 46.1229V68.051C0 70.3638 1.88152 72.2451 4.19412 72.2451H23.6947C24.5501 73.8541 26.2434 74.9525 28.1892 74.9525C30.7007 74.9525 32.7916 73.1226 33.202 70.7262H38.1758C38.9187 70.7262 39.6455 70.8656 40.3358 71.1406C44.2452 72.5632 46.1794 73.8668 50.9562 74.7096V80.3491C50.9562 85.1195 54.8372 89.0006 59.6076 89.0006C64.3779 89.0006 68.2588 85.1195 68.2588 80.3491V72.8059C68.8877 71.8559 69.1994 70.7359 69.1445 69.5683C69.0949 68.5151 68.7235 67.5145 68.1107 66.6796C70.1058 65.9313 71.5282 64.0312 71.5311 61.8111C71.5331 60.2329 70.9507 58.8303 69.9851 57.821C71.3726 56.8712 72.3097 55.317 72.3681 53.5645C72.4112 52.2747 71.9888 51.0612 71.2495 50.0959C73.1347 49.2466 74.4499 47.3521 74.4499 45.1564C74.4499 42.1697 72.0166 39.7403 69.0268 39.7403ZM30.669 69.8647C30.669 71.2322 29.5565 72.3447 28.189 72.3447C26.8215 72.3447 25.7092 71.2322 25.7092 69.8647V66.6866C25.7092 65.9666 25.1255 65.3829 24.4055 65.3829C23.6855 65.3829 23.1018 65.9666 23.1018 66.6866V69.6375H4.19412C3.31925 69.6375 2.60742 68.9257 2.60742 68.0508V46.1227C2.60742 45.2479 3.31925 44.536 4.19412 44.536H23.1018V60.5878C23.1018 61.3078 23.6855 61.8916 24.4055 61.8916C25.1255 61.8916 25.7092 61.3078 25.7092 60.5878V43.245C25.7092 43.2429 25.7092 43.2408 25.7092 43.2388C25.7101 41.8721 26.8222 40.7605 28.189 40.7605C29.5565 40.7605 30.6688 41.873 30.6688 43.2405V69.8647H30.669ZM49.3915 23.4304C47.1465 20.9189 45.9101 17.6787 45.9101 14.3066C45.9101 9.62301 48.3402 5.16345 52.2522 2.66832C52.5043 2.50736 52.8347 2.69961 52.8347 3.0012V13.2729C52.8347 17.0074 55.8729 20.0456 59.6074 20.0456C63.3419 20.0456 66.3801 17.0074 66.3801 13.2729V3.0012C66.3801 2.70013 66.7098 2.50701 66.9626 2.66832C70.8746 5.16362 73.3047 9.62318 73.3047 14.3066C73.3047 17.6787 72.0683 20.9189 69.8229 23.4307C67.4105 26.1329 65.6512 30.3798 65.6512 34.8465V39.7375L63.3668 39.7358V37.0456C63.3668 36.3256 62.7831 35.7419 62.0631 35.7419C61.3431 35.7419 60.7594 36.3256 60.7594 37.0456V39.7337L58.4551 39.7318V30.0184C58.4551 29.3831 58.9721 28.8663 59.6072 28.8663C60.2426 28.8663 60.7594 29.3831 60.7594 30.0184V30.9467C60.7594 31.6667 61.3431 32.2504 62.0631 32.2504C62.7831 32.2504 63.3668 31.6667 63.3668 30.9467V30.0184C63.3668 27.9454 61.6803 26.2589 59.6072 26.2589C57.5342 26.2589 55.8477 27.9454 55.8477 30.0184V39.7297L54.8911 39.729C54.075 39.729 53.5618 39.0928 53.562 38.3045C53.5634 35.2129 54.1462 28.758 49.3915 23.4304ZM65.6514 80.3486C65.6514 83.6813 62.94 86.3926 59.6074 86.3926C56.2748 86.3926 53.5634 83.6813 53.5634 80.3486V75.0566C54.3222 75.1253 55.0839 75.1668 55.8479 75.1797V79.9666C55.8479 82.0396 57.5345 83.7261 59.6074 83.7261C61.6805 83.7261 63.367 82.0396 63.367 79.9666V75.2405C63.518 75.2301 64.5057 75.3286 65.6514 74.8965V80.3486ZM58.4553 79.9666V75.2016L60.7595 75.2198V79.9666C60.7595 80.6019 60.2427 81.1187 59.6074 81.1187C58.9722 81.1187 58.4553 80.6019 58.4553 79.9666ZM69.0258 47.9643H67.4208C66.7008 47.9643 66.1171 48.548 66.1171 49.268V49.2948C66.1171 49.9583 66.6155 50.5159 67.2748 50.5903C68.7183 50.753 69.8108 52.0209 69.7621 53.4772C69.7122 54.972 68.4048 56.1883 66.847 56.1883L66.2887 56.1886C65.5688 56.189 64.9856 56.7772 64.9856 57.4968C64.9856 58.1972 65.5389 58.7724 66.2388 58.7995C67.7966 58.86 68.9258 60.1249 68.9237 61.8074C68.9218 63.2438 67.7114 64.4122 66.2257 64.4122H65.3488C64.5335 64.4122 63.8702 65.0754 63.8702 65.8906C63.8702 66.4872 64.2265 67.0223 64.7781 67.2535C65.8146 67.688 66.4898 68.622 66.54 69.6905C66.6158 71.3012 65.3324 72.6362 63.7454 72.6362C56.7057 72.5298 55.3314 72.7087 52.4165 72.3013C52.4069 72.3 52.3975 72.2983 52.3878 72.2974C47.3023 71.5814 44.8895 70.0012 41.3007 68.7181C40.3021 68.3204 39.2507 68.1186 38.1758 68.1186H33.2764V45.7087H35.2487C37.8535 45.7087 40.2716 44.535 41.883 42.4887L44.1078 39.6633C45.6857 37.6597 48.1346 36.3983 50.9549 36.1016V38.3045C50.9542 40.5364 52.6346 42.3368 54.8904 42.3368C56.5859 42.3382 65.2721 42.3451 66.9543 42.3465H66.9553H66.9563L69.0259 42.3482C70.5791 42.3482 71.8426 43.608 71.8426 45.1566C71.8425 46.7045 70.5789 47.9643 69.0258 47.9643Z" fill="black"/>
<path d="M69.0268 39.7403L68.2588 39.7396V34.8465C68.2588 31.0444 69.7652 27.4096 71.7674 25.1681C74.4402 22.1781 75.9121 18.3207 75.9121 14.3066C75.9121 8.74135 73.0202 3.43942 68.3647 0.469918C66.3792 -0.79642 63.7727 0.647396 63.7727 3.00103V13.2727C63.7727 15.5695 61.9042 17.438 59.6074 17.438C57.3106 17.438 55.442 15.5695 55.442 13.2727V3.0012C55.442 0.642008 52.8302 -0.793465 50.8499 0.470091C46.1945 3.43942 43.3025 8.74135 43.3025 14.3068C43.3025 18.3208 44.7745 22.1783 47.4467 25.1674C49.1638 27.0929 50.5949 30.1843 50.8925 33.4889C47.2852 33.8161 44.1171 35.437 42.0591 38.0502L39.8341 40.8757C38.7204 42.2902 37.0489 43.1014 35.2483 43.1014H33.2726C33.1984 40.3605 30.9471 38.1532 28.1888 38.1532C25.8373 38.1532 23.8541 39.7575 23.2738 41.9288H4.19412C1.88134 41.9288 0 43.8103 0 46.1229V68.051C0 70.3638 1.88152 72.2451 4.19412 72.2451H23.6947C24.5501 73.8541 26.2434 74.9525 28.1892 74.9525C30.7007 74.9525 32.7916 73.1226 33.202 70.7262H38.1758C38.9187 70.7262 39.6455 70.8656 40.3358 71.1406C44.2452 72.5632 46.1794 73.8668 50.9562 74.7096V80.3491C50.9562 85.1195 54.8372 89.0006 59.6076 89.0006C64.3779 89.0006 68.2588 85.1195 68.2588 80.3491V72.8059C68.8877 71.8559 69.1994 70.7359 69.1445 69.5683C69.0949 68.5151 68.7235 67.5145 68.1107 66.6796C70.1058 65.9313 71.5282 64.0312 71.5311 61.8111C71.5331 60.2329 70.9507 58.8303 69.9851 57.821C71.3726 56.8712 72.3097 55.317 72.3681 53.5645C72.4112 52.2747 71.9888 51.0612 71.2495 50.0959C73.1347 49.2466 74.4499 47.3521 74.4499 45.1564C74.4499 42.1697 72.0166 39.7403 69.0268 39.7403ZM30.669 69.8647C30.669 71.2322 29.5565 72.3447 28.189 72.3447C26.8215 72.3447 25.7092 71.2322 25.7092 69.8647V66.6866C25.7092 65.9666 25.1255 65.3829 24.4055 65.3829C23.6855 65.3829 23.1018 65.9666 23.1018 66.6866V69.6375H4.19412C3.31925 69.6375 2.60742 68.9257 2.60742 68.0508V46.1227C2.60742 45.2479 3.31925 44.536 4.19412 44.536H23.1018V60.5878C23.1018 61.3078 23.6855 61.8916 24.4055 61.8916C25.1255 61.8916 25.7092 61.3078 25.7092 60.5878V43.245C25.7092 43.2429 25.7092 43.2408 25.7092 43.2388C25.7101 41.8721 26.8222 40.7605 28.189 40.7605C29.5565 40.7605 30.6688 41.873 30.6688 43.2405V69.8647H30.669ZM49.3915 23.4304C47.1465 20.9189 45.9101 17.6787 45.9101 14.3066C45.9101 9.62301 48.3402 5.16345 52.2522 2.66832C52.5043 2.50736 52.8347 2.69961 52.8347 3.0012V13.2729C52.8347 17.0074 55.8729 20.0456 59.6074 20.0456C63.3419 20.0456 66.3801 17.0074 66.3801 13.2729V3.0012C66.3801 2.70013 66.7098 2.50701 66.9626 2.66832C70.8746 5.16362 73.3047 9.62318 73.3047 14.3066C73.3047 17.6787 72.0683 20.9189 69.8229 23.4307C67.4105 26.1329 65.6512 30.3798 65.6512 34.8465V39.7375L63.3668 39.7358V37.0456C63.3668 36.3256 62.7831 35.7419 62.0631 35.7419C61.3431 35.7419 60.7594 36.3256 60.7594 37.0456V39.7337L58.4551 39.7318V30.0184C58.4551 29.3831 58.9721 28.8663 59.6072 28.8663C60.2426 28.8663 60.7594 29.3831 60.7594 30.0184V30.9467C60.7594 31.6667 61.3431 32.2504 62.0631 32.2504C62.7831 32.2504 63.3668 31.6667 63.3668 30.9467V30.0184C63.3668 27.9454 61.6803 26.2589 59.6072 26.2589C57.5342 26.2589 55.8477 27.9454 55.8477 30.0184V39.7297L54.8911 39.729C54.075 39.729 53.5618 39.0928 53.562 38.3045C53.5634 35.2129 54.1462 28.758 49.3915 23.4304ZM65.6514 80.3486C65.6514 83.6813 62.94 86.3926 59.6074 86.3926C56.2748 86.3926 53.5634 83.6813 53.5634 80.3486V75.0566C54.3222 75.1253 55.0839 75.1668 55.8479 75.1797V79.9666C55.8479 82.0396 57.5345 83.7261 59.6074 83.7261C61.6805 83.7261 63.367 82.0396 63.367 79.9666V75.2405C63.518 75.2301 64.5057 75.3286 65.6514 74.8965V80.3486ZM58.4553 79.9666V75.2016L60.7595 75.2198V79.9666C60.7595 80.6019 60.2427 81.1187 59.6074 81.1187C58.9722 81.1187 58.4553 80.6019 58.4553 79.9666ZM69.0258 47.9643H67.4208C66.7008 47.9643 66.1171 48.548 66.1171 49.268V49.2948C66.1171 49.9583 66.6155 50.5159 67.2748 50.5903C68.7183 50.753 69.8108 52.0209 69.7621 53.4772C69.7122 54.972 68.4048 56.1883 66.847 56.1883L66.2887 56.1886C65.5688 56.189 64.9856 56.7772 64.9856 57.4968C64.9856 58.1972 65.5389 58.7724 66.2388 58.7995C67.7966 58.86 68.9258 60.1249 68.9237 61.8074C68.9218 63.2438 67.7114 64.4122 66.2257 64.4122H65.3488C64.5335 64.4122 63.8702 65.0754 63.8702 65.8906C63.8702 66.4872 64.2265 67.0223 64.7781 67.2535C65.8146 67.688 66.4898 68.622 66.54 69.6905C66.6158 71.3012 65.3324 72.6362 63.7454 72.6362C56.7057 72.5298 55.3314 72.7087 52.4165 72.3013C52.4069 72.3 52.3975 72.2983 52.3878 72.2974C47.3023 71.5814 44.8895 70.0012 41.3007 68.7181C40.3021 68.3204 39.2507 68.1186 38.1758 68.1186H33.2764V45.7087H35.2487C37.8535 45.7087 40.2716 44.535 41.883 42.4887L44.1078 39.6633C45.6857 37.6597 48.1346 36.3983 50.9549 36.1016V38.3045C50.9542 40.5364 52.6346 42.3368 54.8904 42.3368C56.5859 42.3382 65.2721 42.3451 66.9543 42.3465H66.9553H66.9563L69.0259 42.3482C70.5791 42.3482 71.8426 43.608 71.8426 45.1566C71.8425 46.7045 70.5789 47.9643 69.0258 47.9643Z" fill="url(#paint0_linear)" fill-opacity="0.95"/>
<defs>
<linearGradient id="paint0_linear" x1="0" y1="0" x2="81.2545" y2="5.17874" gradientUnits="userSpaceOnUse">
<stop stop-color="#2CBCEA"/>
<stop offset="1" stop-color="#302CEA"/>
</linearGradient>
</defs>
</svg>
