<svg width="75" height="67" viewBox="0 0 75 67" fill="none" xmlns="http://www.w3.org/2000/svg">
<path d="M70.2156 42.9063H27.9848C27.3735 42.9054 26.7876 42.6622 26.3555 42.2299C25.9234 41.7976 25.6804 41.2116 25.6799 40.6003V24.0861C25.6799 23.803 25.7924 23.5315 25.9926 23.3313C26.1928 23.131 26.4643 23.0186 26.7474 23.0186C27.0306 23.0186 27.3021 23.131 27.5023 23.3313C27.7025 23.5315 27.815 23.803 27.815 24.0861V40.6003C27.8147 40.6228 27.8189 40.645 27.8273 40.6658C27.8357 40.6866 27.8482 40.7055 27.864 40.7214C27.8798 40.7373 27.8986 40.7499 27.9194 40.7584C27.9401 40.767 27.9623 40.7713 27.9848 40.7711H70.2156C70.2381 40.7714 70.2604 40.7672 70.2813 40.7587C70.3021 40.7502 70.3211 40.7377 70.337 40.7218C70.3529 40.7058 70.3655 40.6869 70.374 40.666C70.3825 40.6452 70.3867 40.6228 70.3864 40.6003V11.5348H27.815V17.7C27.815 17.9831 27.7025 18.2546 27.5023 18.4548C27.3021 18.655 27.0306 18.7675 26.7474 18.7675C26.4643 18.7675 26.1928 18.655 25.9926 18.4548C25.7924 18.2546 25.6799 17.9831 25.6799 17.7V10.4672C25.6799 10.184 25.7924 9.91251 25.9926 9.7123C26.1928 9.51209 26.4643 9.39962 26.7474 9.39962H71.4486C71.7318 9.39962 72.0033 9.51209 72.2035 9.7123C72.4037 9.91251 72.5162 10.184 72.5162 10.4672V40.6003C72.5156 41.2108 72.2732 41.7962 71.8421 42.2284C71.4109 42.6606 70.8261 42.9043 70.2156 42.9063Z" fill="black"/>
<path d="M70.2156 42.9063H27.9848C27.3735 42.9054 26.7876 42.6622 26.3555 42.2299C25.9234 41.7976 25.6804 41.2116 25.6799 40.6003V24.0861C25.6799 23.803 25.7924 23.5315 25.9926 23.3313C26.1928 23.131 26.4643 23.0186 26.7474 23.0186C27.0306 23.0186 27.3021 23.131 27.5023 23.3313C27.7025 23.5315 27.815 23.803 27.815 24.0861V40.6003C27.8147 40.6228 27.8189 40.645 27.8273 40.6658C27.8357 40.6866 27.8482 40.7055 27.864 40.7214C27.8798 40.7373 27.8986 40.7499 27.9194 40.7584C27.9401 40.767 27.9623 40.7713 27.9848 40.7711H70.2156C70.2381 40.7714 70.2604 40.7672 70.2813 40.7587C70.3021 40.7502 70.3211 40.7377 70.337 40.7218C70.3529 40.7058 70.3655 40.6869 70.374 40.666C70.3825 40.6452 70.3867 40.6228 70.3864 40.6003V11.5348H27.815V17.7C27.815 17.9831 27.7025 18.2546 27.5023 18.4548C27.3021 18.655 27.0306 18.7675 26.7474 18.7675C26.4643 18.7675 26.1928 18.655 25.9926 18.4548C25.7924 18.2546 25.6799 17.9831 25.6799 17.7V10.4672C25.6799 10.184 25.7924 9.91251 25.9926 9.7123C26.1928 9.51209 26.4643 9.39962 26.7474 9.39962H71.4486C71.7318 9.39962 72.0033 9.51209 72.2035 9.7123C72.4037 9.91251 72.5162 10.184 72.5162 10.4672V40.6003C72.5156 41.2108 72.2732 41.7962 71.8421 42.2284C71.4109 42.6606 70.8261 42.9043 70.2156 42.9063Z" fill="url(#paint0_linear)" fill-opacity="0.95"/>
<path d="M13.8 15.3823C12.3398 15.3821 10.9124 14.9489 9.69833 14.1375C8.4843 13.3261 7.53813 12.1729 6.97947 10.8237C6.42081 9.47461 6.27474 7.9901 6.55975 6.55796C6.84476 5.12581 7.54803 3.81033 8.58065 2.77787C9.61326 1.7454 10.9288 1.04232 12.361 0.757516C13.7932 0.472716 15.2777 0.618993 16.6268 1.17785C17.9758 1.7367 19.1289 2.68304 19.9401 3.89719C20.7514 5.11135 21.1843 6.53879 21.1843 7.99902C21.1821 9.95668 20.4033 11.8335 19.019 13.2177C17.6346 14.6019 15.7576 15.3803 13.8 15.3823ZM13.8 2.75406C12.762 2.75427 11.7475 3.06225 10.8846 3.63906C10.0216 4.21586 9.34913 5.03558 8.95207 5.99458C8.55502 6.95357 8.45124 8.00877 8.65386 9.02674C8.85648 10.0447 9.35641 10.9797 10.0904 11.7136C10.8244 12.4475 11.7596 12.9472 12.7776 13.1496C13.7956 13.352 14.8508 13.248 15.8097 12.8508C16.7686 12.4535 17.5882 11.7809 18.1648 10.9178C18.7414 10.0548 19.0492 9.04016 19.0492 8.00222C19.0478 6.61057 18.4943 5.27634 17.5101 4.2924C16.526 3.30845 15.1916 2.75519 13.8 2.75406Z" fill="black"/>
<path d="M13.8 15.3823C12.3398 15.3821 10.9124 14.9489 9.69833 14.1375C8.4843 13.3261 7.53813 12.1729 6.97947 10.8237C6.42081 9.47461 6.27474 7.9901 6.55975 6.55796C6.84476 5.12581 7.54803 3.81033 8.58065 2.77787C9.61326 1.7454 10.9288 1.04232 12.361 0.757516C13.7932 0.472716 15.2777 0.618993 16.6268 1.17785C17.9758 1.7367 19.1289 2.68304 19.9401 3.89719C20.7514 5.11135 21.1843 6.53879 21.1843 7.99902C21.1821 9.95668 20.4033 11.8335 19.019 13.2177C17.6346 14.6019 15.7576 15.3803 13.8 15.3823ZM13.8 2.75406C12.762 2.75427 11.7475 3.06225 10.8846 3.63906C10.0216 4.21586 9.34913 5.03558 8.95207 5.99458C8.55502 6.95357 8.45124 8.00877 8.65386 9.02674C8.85648 10.0447 9.35641 10.9797 10.0904 11.7136C10.8244 12.4475 11.7596 12.9472 12.7776 13.1496C13.7956 13.352 14.8508 13.248 15.8097 12.8508C16.7686 12.4535 17.5882 11.7809 18.1648 10.9178C18.7414 10.0548 19.0492 9.04016 19.0492 8.00222C19.0478 6.61057 18.4943 5.27634 17.5101 4.2924C16.526 3.30845 15.1916 2.75519 13.8 2.75406Z" fill="url(#paint1_linear)" fill-opacity="0.95"/>
<path d="M10.2279 66.3812C8.98659 66.384 7.79486 65.8943 6.91422 65.0194C6.03358 64.1446 5.53598 62.9561 5.53061 61.7148V39.0418C5.53061 38.7587 5.64308 38.4871 5.84329 38.2869C6.0435 38.0867 6.31504 37.9743 6.59818 37.9743C6.88131 37.9743 7.15285 38.0867 7.35306 38.2869C7.55327 38.4871 7.66574 38.7587 7.66574 39.0418V61.717C7.66821 62.0646 7.74165 62.408 7.88157 62.7262C8.02149 63.0445 8.22494 63.3308 8.47943 63.5676C8.73393 63.8044 9.03411 63.9867 9.36157 64.1034C9.68903 64.22 10.0369 64.2686 10.3838 64.246C10.7434 64.2181 11.0924 64.1114 11.4061 63.9333C11.7198 63.7553 11.9904 63.5103 12.1986 63.2158C12.4648 62.8146 12.6185 62.3494 12.6438 61.8686C12.7004 61.2494 12.7303 60.6195 12.7303 59.996V42.8637C12.7303 42.5806 12.8428 42.309 13.043 42.1088C13.2432 41.9086 13.5147 41.7961 13.7979 41.7961C14.081 41.7961 14.3525 41.9086 14.5527 42.1088C14.7529 42.309 14.8654 42.5806 14.8654 42.8637V59.995C14.8654 60.6836 14.8334 61.3828 14.7704 62.0639C14.7125 62.9281 14.4206 63.7603 13.926 64.4713C13.5324 65.0213 13.0219 65.4773 12.4313 65.8068C11.8407 66.1362 11.1845 66.3309 10.5097 66.3769C10.419 66.3812 10.3229 66.3812 10.2279 66.3812Z" fill="black"/>
<path d="M10.2279 66.3812C8.98659 66.384 7.79486 65.8943 6.91422 65.0194C6.03358 64.1446 5.53598 62.9561 5.53061 61.7148V39.0418C5.53061 38.7587 5.64308 38.4871 5.84329 38.2869C6.0435 38.0867 6.31504 37.9743 6.59818 37.9743C6.88131 37.9743 7.15285 38.0867 7.35306 38.2869C7.55327 38.4871 7.66574 38.7587 7.66574 39.0418V61.717C7.66821 62.0646 7.74165 62.408 7.88157 62.7262C8.02149 63.0445 8.22494 63.3308 8.47943 63.5676C8.73393 63.8044 9.03411 63.9867 9.36157 64.1034C9.68903 64.22 10.0369 64.2686 10.3838 64.246C10.7434 64.2181 11.0924 64.1114 11.4061 63.9333C11.7198 63.7553 11.9904 63.5103 12.1986 63.2158C12.4648 62.8146 12.6185 62.3494 12.6438 61.8686C12.7004 61.2494 12.7303 60.6195 12.7303 59.996V42.8637C12.7303 42.5806 12.8428 42.309 13.043 42.1088C13.2432 41.9086 13.5147 41.7961 13.7979 41.7961C14.081 41.7961 14.3525 41.9086 14.5527 42.1088C14.7529 42.309 14.8654 42.5806 14.8654 42.8637V59.995C14.8654 60.6836 14.8334 61.3828 14.7704 62.0639C14.7125 62.9281 14.4206 63.7603 13.926 64.4713C13.5324 65.0213 13.0219 65.4773 12.4313 65.8068C11.8407 66.1362 11.1845 66.3309 10.5097 66.3769C10.419 66.3812 10.3229 66.3812 10.2279 66.3812Z" fill="url(#paint2_linear)" fill-opacity="0.95"/>
<path d="M17.3742 66.381C17.2792 66.381 17.1831 66.381 17.0881 66.3725C16.4135 66.3266 15.7573 66.1321 15.1667 65.8028C14.5761 65.4735 14.0656 65.0177 13.6719 64.4679C13.1768 63.7571 12.8845 62.9249 12.8264 62.0606C12.7634 61.3741 12.7314 60.6791 12.7314 59.9927V42.8636C12.7314 42.5804 12.8438 42.3089 13.044 42.1087C13.2443 41.9085 13.5158 41.796 13.7989 41.796C14.0821 41.796 14.3536 41.9085 14.5538 42.1087C14.754 42.3089 14.8665 42.5804 14.8665 42.8636V59.9948C14.8665 60.6161 14.8953 61.246 14.9519 61.8673C14.9775 62.3482 15.1316 62.8135 15.3981 63.2146C15.6067 63.5097 15.8777 63.7551 16.192 63.9333C16.5062 64.1116 16.856 64.2183 17.2162 64.2459C17.5622 64.267 17.9089 64.2175 18.2351 64.1004C18.5614 63.9833 18.8603 63.8009 19.1138 63.5645C19.3673 63.3281 19.5701 63.0425 19.7096 62.7252C19.8492 62.4079 19.9227 62.0656 19.9257 61.7189V26.0803C19.9265 25.2687 20.2493 24.4906 20.823 23.9166C21.3968 23.3426 22.1748 23.0197 22.9864 23.0185H33.2511C33.8166 23.0174 34.3587 22.7929 34.7595 22.394C34.955 22.1975 35.1097 21.9643 35.2147 21.7078C35.3196 21.4513 35.3729 21.1766 35.3713 20.8994C35.3723 20.62 35.3182 20.3431 35.2122 20.0846C35.1062 19.8261 34.9503 19.591 34.7534 19.3927C34.5565 19.1945 34.3225 19.0369 34.0647 18.9291C33.807 18.8213 33.5305 18.7653 33.2511 18.7643H7.8846C6.39547 18.7657 4.96778 19.3581 3.9151 20.4114C2.86242 21.4647 2.27083 22.8927 2.27027 24.3818V39.4345C2.27365 39.8687 2.44908 40.2838 2.75808 40.5888C3.06708 40.8938 3.48443 41.0638 3.91859 41.0615C4.12703 41.0679 4.33464 41.0327 4.5293 40.9579C4.72395 40.8831 4.90173 40.7702 5.05224 40.6258C5.20274 40.4815 5.32295 40.3086 5.40582 40.1172C5.4887 39.9259 5.53257 39.7199 5.53489 39.5114V26.1572C5.53489 25.8741 5.64736 25.6025 5.84757 25.4023C6.04778 25.2021 6.31932 25.0896 6.60246 25.0896C6.88559 25.0896 7.15713 25.2021 7.35734 25.4023C7.55755 25.6025 7.67002 25.8741 7.67002 26.1572V39.5114C7.66889 40.4886 7.28012 41.4255 6.58901 42.1164C5.89791 42.8073 4.96094 43.1958 3.98371 43.1966C3.48351 43.2041 2.98676 43.1125 2.5221 42.9272C2.05744 42.7419 1.63404 42.4664 1.27631 42.1167C0.918569 41.767 0.633564 41.35 0.437708 40.8896C0.241853 40.4293 0.139019 39.9348 0.135132 39.4345V24.3818C0.137392 22.3272 0.954578 20.3574 2.4074 18.9046C3.86021 17.4518 5.83001 16.6346 7.8846 16.6323H33.2543C34.3843 16.6323 35.468 17.0812 36.267 17.8803C37.0661 18.6793 37.5149 19.763 37.5149 20.893C37.5149 22.023 37.0661 23.1067 36.267 23.9058C35.468 24.7048 34.3843 25.1537 33.2543 25.1537H22.9896C22.744 25.154 22.5086 25.2517 22.3351 25.4255C22.1615 25.5992 22.064 25.8347 22.064 26.0803V61.7179C22.0573 62.9571 21.5601 64.1433 20.6813 65.0171C19.8025 65.8909 18.6135 66.3813 17.3742 66.381Z" fill="black"/>
<path d="M17.3742 66.381C17.2792 66.381 17.1831 66.381 17.0881 66.3725C16.4135 66.3266 15.7573 66.1321 15.1667 65.8028C14.5761 65.4735 14.0656 65.0177 13.6719 64.4679C13.1768 63.7571 12.8845 62.9249 12.8264 62.0606C12.7634 61.3741 12.7314 60.6791 12.7314 59.9927V42.8636C12.7314 42.5804 12.8438 42.3089 13.044 42.1087C13.2443 41.9085 13.5158 41.796 13.7989 41.796C14.0821 41.796 14.3536 41.9085 14.5538 42.1087C14.754 42.3089 14.8665 42.5804 14.8665 42.8636V59.9948C14.8665 60.6161 14.8953 61.246 14.9519 61.8673C14.9775 62.3482 15.1316 62.8135 15.3981 63.2146C15.6067 63.5097 15.8777 63.7551 16.192 63.9333C16.5062 64.1116 16.856 64.2183 17.2162 64.2459C17.5622 64.267 17.9089 64.2175 18.2351 64.1004C18.5614 63.9833 18.8603 63.8009 19.1138 63.5645C19.3673 63.3281 19.5701 63.0425 19.7096 62.7252C19.8492 62.4079 19.9227 62.0656 19.9257 61.7189V26.0803C19.9265 25.2687 20.2493 24.4906 20.823 23.9166C21.3968 23.3426 22.1748 23.0197 22.9864 23.0185H33.2511C33.8166 23.0174 34.3587 22.7929 34.7595 22.394C34.955 22.1975 35.1097 21.9643 35.2147 21.7078C35.3196 21.4513 35.3729 21.1766 35.3713 20.8994C35.3723 20.62 35.3182 20.3431 35.2122 20.0846C35.1062 19.8261 34.9503 19.591 34.7534 19.3927C34.5565 19.1945 34.3225 19.0369 34.0647 18.9291C33.807 18.8213 33.5305 18.7653 33.2511 18.7643H7.8846C6.39547 18.7657 4.96778 19.3581 3.9151 20.4114C2.86242 21.4647 2.27083 22.8927 2.27027 24.3818V39.4345C2.27365 39.8687 2.44908 40.2838 2.75808 40.5888C3.06708 40.8938 3.48443 41.0638 3.91859 41.0615C4.12703 41.0679 4.33464 41.0327 4.5293 40.9579C4.72395 40.8831 4.90173 40.7702 5.05224 40.6258C5.20274 40.4815 5.32295 40.3086 5.40582 40.1172C5.4887 39.9259 5.53257 39.7199 5.53489 39.5114V26.1572C5.53489 25.8741 5.64736 25.6025 5.84757 25.4023C6.04778 25.2021 6.31932 25.0896 6.60246 25.0896C6.88559 25.0896 7.15713 25.2021 7.35734 25.4023C7.55755 25.6025 7.67002 25.8741 7.67002 26.1572V39.5114C7.66889 40.4886 7.28012 41.4255 6.58901 42.1164C5.89791 42.8073 4.96094 43.1958 3.98371 43.1966C3.48351 43.2041 2.98676 43.1125 2.5221 42.9272C2.05744 42.7419 1.63404 42.4664 1.27631 42.1167C0.918569 41.767 0.633564 41.35 0.437708 40.8896C0.241853 40.4293 0.139019 39.9348 0.135132 39.4345V24.3818C0.137392 22.3272 0.954578 20.3574 2.4074 18.9046C3.86021 17.4518 5.83001 16.6346 7.8846 16.6323H33.2543C34.3843 16.6323 35.468 17.0812 36.267 17.8803C37.0661 18.6793 37.5149 19.763 37.5149 20.893C37.5149 22.023 37.0661 23.1067 36.267 23.9058C35.468 24.7048 34.3843 25.1537 33.2543 25.1537H22.9896C22.744 25.154 22.5086 25.2517 22.3351 25.4255C22.1615 25.5992 22.064 25.8347 22.064 26.0803V61.7179C22.0573 62.9571 21.5601 64.1433 20.6813 65.0171C19.8025 65.8909 18.6135 66.3813 17.3742 66.381Z" fill="url(#paint3_linear)" fill-opacity="0.95"/>
<path d="M73.7973 11.5348H24.402C24.1189 11.5348 23.8473 11.4223 23.6471 11.2221C23.4469 11.0219 23.3344 10.7503 23.3344 10.4672C23.3344 10.184 23.4469 9.91251 23.6471 9.7123C23.8473 9.51209 24.1189 9.39962 24.402 9.39962H73.7973C74.0804 9.39962 74.352 9.51209 74.5522 9.7123C74.7524 9.91251 74.8649 10.184 74.8649 10.4672C74.8649 10.7503 74.7524 11.0219 74.5522 11.2221C74.352 11.4223 74.0804 11.5348 73.7973 11.5348Z" fill="black"/>
<path d="M73.7973 11.5348H24.402C24.1189 11.5348 23.8473 11.4223 23.6471 11.2221C23.4469 11.0219 23.3344 10.7503 23.3344 10.4672C23.3344 10.184 23.4469 9.91251 23.6471 9.7123C23.8473 9.51209 24.1189 9.39962 24.402 9.39962H73.7973C74.0804 9.39962 74.352 9.51209 74.5522 9.7123C74.7524 9.91251 74.8649 10.184 74.8649 10.4672C74.8649 10.7503 74.7524 11.0219 74.5522 11.2221C74.352 11.4223 74.0804 11.5348 73.7973 11.5348Z" fill="url(#paint4_linear)" fill-opacity="0.95"/>
<path d="M73.7973 42.9063H24.402C24.1189 42.9063 23.8473 42.7938 23.6471 42.5936C23.4469 42.3934 23.3344 42.1219 23.3344 41.8387C23.3344 41.5556 23.4469 41.2841 23.6471 41.0839C23.8473 40.8836 24.1189 40.7712 24.402 40.7712H73.7973C74.0804 40.7712 74.352 40.8836 74.5522 41.0839C74.7524 41.2841 74.8649 41.5556 74.8649 41.8387C74.8649 42.1219 74.7524 42.3934 74.5522 42.5936C74.352 42.7938 74.0804 42.9063 73.7973 42.9063Z" fill="black"/>
<path d="M73.7973 42.9063H24.402C24.1189 42.9063 23.8473 42.7938 23.6471 42.5936C23.4469 42.3934 23.3344 42.1219 23.3344 41.8387C23.3344 41.5556 23.4469 41.2841 23.6471 41.0839C23.8473 40.8836 24.1189 40.7712 24.402 40.7712H73.7973C74.0804 40.7712 74.352 40.8836 74.5522 41.0839C74.7524 41.2841 74.8649 41.5556 74.8649 41.8387C74.8649 42.1219 74.7524 42.3934 74.5522 42.5936C74.352 42.7938 74.0804 42.9063 73.7973 42.9063Z" fill="url(#paint5_linear)" fill-opacity="0.95"/>
<path d="M67.2948 65.1395H60.773C60.6197 65.1395 60.4681 65.1066 60.3287 65.0429C60.1892 64.9791 60.0651 64.8861 59.9648 64.7701L49.1002 52.1824L38.2302 64.7701C38.1299 64.8861 38.0059 64.9791 37.8664 65.0429C37.7269 65.1066 37.5754 65.1395 37.4221 65.1395H30.9099C30.7048 65.1394 30.504 65.0803 30.3316 64.9691C30.1591 64.858 30.0224 64.6995 29.9377 64.5126C29.853 64.3258 29.824 64.1185 29.854 63.9156C29.884 63.7127 29.9719 63.5227 30.1071 63.3684L43.7549 47.7819V41.8387C43.7549 41.5556 43.8674 41.2841 44.0676 41.0839C44.2678 40.8836 44.5393 40.7712 44.8224 40.7712H53.3875C53.6707 40.7712 53.9422 40.8836 54.1424 41.0839C54.3426 41.2841 54.4551 41.5556 54.4551 41.8387V47.7104L68.0997 63.3694C68.2343 63.5239 68.3217 63.7139 68.3512 63.9167C68.3808 64.1195 68.3514 64.3265 68.2666 64.513C68.1817 64.6995 68.0449 64.8577 67.8726 64.9686C67.7003 65.0795 67.4997 65.1384 67.2948 65.1384V65.1395ZM61.2662 63.0043H64.9472L52.5783 48.8164C52.409 48.6219 52.3157 48.3728 52.3157 48.115V42.9063H45.8847V48.179C45.8846 48.4379 45.7905 48.6879 45.6199 48.8825L33.2586 63.0043H36.9331L48.292 49.8508C48.3954 49.7398 48.5204 49.6513 48.6595 49.5907C48.7985 49.5302 48.9485 49.4989 49.1002 49.4989C49.2518 49.4989 49.4019 49.5302 49.5409 49.5907C49.68 49.6513 49.805 49.7398 49.9083 49.8508L61.2662 63.0043Z" fill="black"/>
<path d="M67.2948 65.1395H60.773C60.6197 65.1395 60.4681 65.1066 60.3287 65.0429C60.1892 64.9791 60.0651 64.8861 59.9648 64.7701L49.1002 52.1824L38.2302 64.7701C38.1299 64.8861 38.0059 64.9791 37.8664 65.0429C37.7269 65.1066 37.5754 65.1395 37.4221 65.1395H30.9099C30.7048 65.1394 30.504 65.0803 30.3316 64.9691C30.1591 64.858 30.0224 64.6995 29.9377 64.5126C29.853 64.3258 29.824 64.1185 29.854 63.9156C29.884 63.7127 29.9719 63.5227 30.1071 63.3684L43.7549 47.7819V41.8387C43.7549 41.5556 43.8674 41.2841 44.0676 41.0839C44.2678 40.8836 44.5393 40.7712 44.8224 40.7712H53.3875C53.6707 40.7712 53.9422 40.8836 54.1424 41.0839C54.3426 41.2841 54.4551 41.5556 54.4551 41.8387V47.7104L68.0997 63.3694C68.2343 63.5239 68.3217 63.7139 68.3512 63.9167C68.3808 64.1195 68.3514 64.3265 68.2666 64.513C68.1817 64.6995 68.0449 64.8577 67.8726 64.9686C67.7003 65.0795 67.4997 65.1384 67.2948 65.1384V65.1395ZM61.2662 63.0043H64.9472L52.5783 48.8164C52.409 48.6219 52.3157 48.3728 52.3157 48.115V42.9063H45.8847V48.179C45.8846 48.4379 45.7905 48.6879 45.6199 48.8825L33.2586 63.0043H36.9331L48.292 49.8508C48.3954 49.7398 48.5204 49.6513 48.6595 49.5907C48.7985 49.5302 48.9485 49.4989 49.1002 49.4989C49.2518 49.4989 49.4019 49.5302 49.5409 49.5907C49.68 49.6513 49.805 49.7398 49.9083 49.8508L61.2662 63.0043Z" fill="url(#paint6_linear)" fill-opacity="0.95"/>
<defs>
<linearGradient id="paint0_linear" x1="0.135132" y1="0.615723" x2="79.8741" y2="7.38628" gradientUnits="userSpaceOnUse">
<stop stop-color="#2CBCEA"/>
<stop offset="1" stop-color="#302CEA"/>
</linearGradient>
<linearGradient id="paint1_linear" x1="0.135132" y1="0.615723" x2="79.8741" y2="7.38628" gradientUnits="userSpaceOnUse">
<stop stop-color="#2CBCEA"/>
<stop offset="1" stop-color="#302CEA"/>
</linearGradient>
<linearGradient id="paint2_linear" x1="0.135132" y1="0.615723" x2="79.8741" y2="7.38628" gradientUnits="userSpaceOnUse">
<stop stop-color="#2CBCEA"/>
<stop offset="1" stop-color="#302CEA"/>
</linearGradient>
<linearGradient id="paint3_linear" x1="0.135132" y1="0.615723" x2="79.8741" y2="7.38628" gradientUnits="userSpaceOnUse">
<stop stop-color="#2CBCEA"/>
<stop offset="1" stop-color="#302CEA"/>
</linearGradient>
<linearGradient id="paint4_linear" x1="0.135132" y1="0.615723" x2="79.8741" y2="7.38628" gradientUnits="userSpaceOnUse">
<stop stop-color="#2CBCEA"/>
<stop offset="1" stop-color="#302CEA"/>
</linearGradient>
<linearGradient id="paint5_linear" x1="0.135132" y1="0.615723" x2="79.8741" y2="7.38628" gradientUnits="userSpaceOnUse">
<stop stop-color="#2CBCEA"/>
<stop offset="1" stop-color="#302CEA"/>
</linearGradient>
<linearGradient id="paint6_linear" x1="0.135132" y1="0.615723" x2="79.8741" y2="7.38628" gradientUnits="userSpaceOnUse">
<stop stop-color="#2CBCEA"/>
<stop offset="1" stop-color="#302CEA"/>
</linearGradient>
</defs>
</svg>
