<svg width="40" height="38" viewBox="0 0 40 38" fill="none" xmlns="http://www.w3.org/2000/svg">
<path d="M36.4844 0H3.51562C1.57711 0 0 1.57711 0 3.51563V27.3438C0 29.2823 1.57711 30.8594 3.51562 30.8594H15.328L14.2976 35.4231H9.35422V37.7669H30.6458V35.4231H25.7024L24.672 30.8594H36.4844C38.4229 30.8594 40 29.2823 40 27.3438V3.51563C40 1.57711 38.4229 0 36.4844 0ZM3.51562 2.34375H36.4844C37.1305 2.34375 37.6562 2.86945 37.6562 3.51563V22.2656H2.34375V3.51563C2.34375 2.86945 2.86945 2.34375 3.51562 2.34375ZM22.2693 30.8594L23.2997 35.4231H16.7004L17.7308 30.8594H22.2693ZM36.4844 28.5156H3.51562C2.86945 28.5156 2.34375 27.9899 2.34375 27.3438V24.6094H37.6562V27.3438C37.6562 27.9899 37.1305 28.5156 36.4844 28.5156Z" fill="url(#paint0_linear)"/>
<path d="M11.3175 15.4212L19.207 7.53176L20.864 9.18879L12.9745 17.0782L11.3175 15.4212Z" fill="url(#paint1_linear)"/>
<path d="M19.1291 15.422L27.0186 7.53254L28.6756 9.18957L20.7861 17.079L19.1291 15.422Z" fill="url(#paint2_linear)"/>
<defs>
<linearGradient id="paint0_linear" x1="0" y1="0" x2="42.7214" y2="3.38106" gradientUnits="userSpaceOnUse">
<stop stop-color="#F9B60B"/>
<stop offset="1" stop-color="#F75F0B"/>
</linearGradient>
<linearGradient id="paint1_linear" x1="0" y1="0" x2="42.7214" y2="3.38106" gradientUnits="userSpaceOnUse">
<stop stop-color="#F9B60B"/>
<stop offset="1" stop-color="#F75F0B"/>
</linearGradient>
<linearGradient id="paint2_linear" x1="0" y1="0" x2="42.7214" y2="3.38106" gradientUnits="userSpaceOnUse">
<stop stop-color="#F9B60B"/>
<stop offset="1" stop-color="#F75F0B"/>
</linearGradient>
</defs>
</svg>
